<mxfile host="Electron" modified="2024-05-07T04:08:49.308Z" agent="Mozilla/5.0 (Windows NT 10.0; Win64; x64) AppleWebKit/537.36 (KHTML, like Gecko) draw.io/24.2.5 Chrome/120.0.6099.109 Electron/28.1.0 Safari/537.36" etag="Fjvg9AuaS-6vFidfFeY9" version="24.2.5" type="device">
  <diagram name="第 1 页" id="p-_X9yyB5Ny2MtwzjN8K">
    <mxGraphModel dx="4483" dy="4752" grid="1" gridSize="10" guides="1" tooltips="1" connect="1" arrows="1" fold="1" page="1" pageScale="1" pageWidth="827" pageHeight="1169" math="0" shadow="0">
      <root>
        <mxCell id="0" />
        <mxCell id="1" parent="0" />
        <mxCell id="h2VIEQUBgTQc3Tr8gH1n-58" style="edgeStyle=orthogonalEdgeStyle;curved=0;rounded=1;orthogonalLoop=1;jettySize=auto;html=1;exitX=0.5;exitY=1;exitDx=0;exitDy=0;entryX=0.5;entryY=0;entryDx=0;entryDy=0;strokeColor=default;align=center;verticalAlign=middle;fontFamily=Helvetica;fontSize=11;fontColor=default;labelBackgroundColor=default;endArrow=none;endFill=0;" edge="1" parent="1" source="h2VIEQUBgTQc3Tr8gH1n-1" target="h2VIEQUBgTQc3Tr8gH1n-20">
          <mxGeometry relative="1" as="geometry" />
        </mxCell>
        <mxCell id="h2VIEQUBgTQc3Tr8gH1n-59" style="edgeStyle=orthogonalEdgeStyle;curved=0;rounded=1;orthogonalLoop=1;jettySize=auto;html=1;exitX=0.5;exitY=1;exitDx=0;exitDy=0;entryX=0.5;entryY=0;entryDx=0;entryDy=0;strokeColor=default;align=center;verticalAlign=middle;fontFamily=Helvetica;fontSize=11;fontColor=default;labelBackgroundColor=default;endArrow=none;endFill=0;" edge="1" parent="1" source="h2VIEQUBgTQc3Tr8gH1n-1" target="h2VIEQUBgTQc3Tr8gH1n-5">
          <mxGeometry relative="1" as="geometry" />
        </mxCell>
        <mxCell id="h2VIEQUBgTQc3Tr8gH1n-60" style="edgeStyle=orthogonalEdgeStyle;curved=0;rounded=1;orthogonalLoop=1;jettySize=auto;html=1;exitX=0.5;exitY=1;exitDx=0;exitDy=0;entryX=0.5;entryY=0;entryDx=0;entryDy=0;strokeColor=default;align=center;verticalAlign=middle;fontFamily=Helvetica;fontSize=11;fontColor=default;labelBackgroundColor=default;endArrow=none;endFill=0;" edge="1" parent="1" source="h2VIEQUBgTQc3Tr8gH1n-1" target="h2VIEQUBgTQc3Tr8gH1n-47">
          <mxGeometry relative="1" as="geometry" />
        </mxCell>
        <mxCell id="h2VIEQUBgTQc3Tr8gH1n-1" value="Tomcat基本使用" style="rounded=1;whiteSpace=wrap;html=1;fillColor=#0050ef;fontColor=#ffffff;strokeColor=#001DBC;fontStyle=1" vertex="1" parent="1">
          <mxGeometry x="760" y="80" width="120" height="50" as="geometry" />
        </mxCell>
        <mxCell id="h2VIEQUBgTQc3Tr8gH1n-56" value="" style="group" vertex="1" connectable="0" parent="1">
          <mxGeometry x="-300" y="210" width="2320" height="1121" as="geometry" />
        </mxCell>
        <mxCell id="h2VIEQUBgTQc3Tr8gH1n-12" style="edgeStyle=orthogonalEdgeStyle;curved=0;rounded=1;orthogonalLoop=1;jettySize=auto;html=1;exitX=0.5;exitY=1;exitDx=0;exitDy=0;entryX=0.5;entryY=0;entryDx=0;entryDy=0;strokeColor=default;align=center;verticalAlign=middle;fontFamily=Helvetica;fontSize=11;fontColor=default;labelBackgroundColor=default;endArrow=none;endFill=0;" edge="1" parent="h2VIEQUBgTQc3Tr8gH1n-56" source="h2VIEQUBgTQc3Tr8gH1n-2" target="h2VIEQUBgTQc3Tr8gH1n-3">
          <mxGeometry relative="1" as="geometry" />
        </mxCell>
        <mxCell id="h2VIEQUBgTQc3Tr8gH1n-2" value="wget https://dlcdn.apache.org/tomcat/tomcat-9/v9.0.87/bin/apache-tomcat-9.0.87.tar.gz" style="rounded=1;whiteSpace=wrap;html=1;fillColor=#dae8fc;strokeColor=#6c8ebf;fontStyle=0" vertex="1" parent="h2VIEQUBgTQc3Tr8gH1n-56">
          <mxGeometry y="100" width="510" height="50" as="geometry" />
        </mxCell>
        <mxCell id="h2VIEQUBgTQc3Tr8gH1n-13" style="edgeStyle=orthogonalEdgeStyle;curved=0;rounded=1;orthogonalLoop=1;jettySize=auto;html=1;exitX=0.5;exitY=1;exitDx=0;exitDy=0;entryX=0.5;entryY=0;entryDx=0;entryDy=0;strokeColor=default;align=center;verticalAlign=middle;fontFamily=Helvetica;fontSize=11;fontColor=default;labelBackgroundColor=default;endArrow=none;endFill=0;" edge="1" parent="h2VIEQUBgTQc3Tr8gH1n-56" source="h2VIEQUBgTQc3Tr8gH1n-3" target="h2VIEQUBgTQc3Tr8gH1n-4">
          <mxGeometry relative="1" as="geometry" />
        </mxCell>
        <mxCell id="h2VIEQUBgTQc3Tr8gH1n-3" value="tar xf apache-tomcat-9.0.87.tar.gz -C /usr/local/" style="rounded=1;whiteSpace=wrap;html=1;fillColor=#dae8fc;strokeColor=#6c8ebf;fontStyle=0" vertex="1" parent="h2VIEQUBgTQc3Tr8gH1n-56">
          <mxGeometry x="105" y="200" width="300" height="50" as="geometry" />
        </mxCell>
        <mxCell id="h2VIEQUBgTQc3Tr8gH1n-14" style="edgeStyle=orthogonalEdgeStyle;curved=0;rounded=1;orthogonalLoop=1;jettySize=auto;html=1;exitX=0.5;exitY=1;exitDx=0;exitDy=0;entryX=0.5;entryY=0;entryDx=0;entryDy=0;strokeColor=default;align=center;verticalAlign=middle;fontFamily=Helvetica;fontSize=11;fontColor=default;labelBackgroundColor=default;endArrow=none;endFill=0;" edge="1" parent="h2VIEQUBgTQc3Tr8gH1n-56" source="h2VIEQUBgTQc3Tr8gH1n-4" target="h2VIEQUBgTQc3Tr8gH1n-6">
          <mxGeometry relative="1" as="geometry" />
        </mxCell>
        <mxCell id="h2VIEQUBgTQc3Tr8gH1n-4" value="cd /us/local &amp;amp;&amp;amp; ln -sv apache-tomcat-9.0.87/ tomcat" style="rounded=1;whiteSpace=wrap;html=1;fillColor=#dae8fc;strokeColor=#6c8ebf;fontStyle=0" vertex="1" parent="h2VIEQUBgTQc3Tr8gH1n-56">
          <mxGeometry x="97.5" y="300" width="315" height="50" as="geometry" />
        </mxCell>
        <mxCell id="h2VIEQUBgTQc3Tr8gH1n-10" style="edgeStyle=orthogonalEdgeStyle;rounded=1;orthogonalLoop=1;jettySize=auto;html=1;exitX=0.5;exitY=1;exitDx=0;exitDy=0;entryX=0.5;entryY=0;entryDx=0;entryDy=0;curved=0;endArrow=none;endFill=0;" edge="1" parent="h2VIEQUBgTQc3Tr8gH1n-56" source="h2VIEQUBgTQc3Tr8gH1n-5" target="h2VIEQUBgTQc3Tr8gH1n-2">
          <mxGeometry relative="1" as="geometry" />
        </mxCell>
        <mxCell id="h2VIEQUBgTQc3Tr8gH1n-5" value="Tomcat安装" style="rounded=1;whiteSpace=wrap;html=1;fillColor=#dae8fc;strokeColor=#6c8ebf;fontStyle=1" vertex="1" parent="h2VIEQUBgTQc3Tr8gH1n-56">
          <mxGeometry x="194.5" width="120" height="50" as="geometry" />
        </mxCell>
        <mxCell id="h2VIEQUBgTQc3Tr8gH1n-15" style="edgeStyle=orthogonalEdgeStyle;curved=0;rounded=1;orthogonalLoop=1;jettySize=auto;html=1;exitX=0.5;exitY=1;exitDx=0;exitDy=0;entryX=0.5;entryY=0;entryDx=0;entryDy=0;strokeColor=default;align=center;verticalAlign=middle;fontFamily=Helvetica;fontSize=11;fontColor=default;labelBackgroundColor=default;endArrow=none;endFill=0;" edge="1" parent="h2VIEQUBgTQc3Tr8gH1n-56" source="h2VIEQUBgTQc3Tr8gH1n-6" target="h2VIEQUBgTQc3Tr8gH1n-7">
          <mxGeometry relative="1" as="geometry" />
        </mxCell>
        <mxCell id="h2VIEQUBgTQc3Tr8gH1n-6" value="ln -sv /usr/local/tomcat/bin/* /usr/local/bin/" style="rounded=1;whiteSpace=wrap;html=1;fillColor=#dae8fc;strokeColor=#6c8ebf;fontStyle=0" vertex="1" parent="h2VIEQUBgTQc3Tr8gH1n-56">
          <mxGeometry x="123.5" y="404.5" width="263" height="50" as="geometry" />
        </mxCell>
        <mxCell id="h2VIEQUBgTQc3Tr8gH1n-16" style="edgeStyle=orthogonalEdgeStyle;curved=0;rounded=1;orthogonalLoop=1;jettySize=auto;html=1;exitX=0.5;exitY=1;exitDx=0;exitDy=0;entryX=0.5;entryY=0;entryDx=0;entryDy=0;strokeColor=default;align=center;verticalAlign=middle;fontFamily=Helvetica;fontSize=11;fontColor=default;labelBackgroundColor=default;endArrow=none;endFill=0;" edge="1" parent="h2VIEQUBgTQc3Tr8gH1n-56" source="h2VIEQUBgTQc3Tr8gH1n-7" target="h2VIEQUBgTQc3Tr8gH1n-8">
          <mxGeometry relative="1" as="geometry" />
        </mxCell>
        <mxCell id="h2VIEQUBgTQc3Tr8gH1n-7" value="&lt;div&gt;useradd -r -s /sbin/nologin tomcat&lt;/div&gt;&lt;div&gt;chown -R tomcat.tomcat /usr/local/tomcat&lt;/div&gt;" style="rounded=1;whiteSpace=wrap;html=1;fillColor=#dae8fc;strokeColor=#6c8ebf;fontStyle=0" vertex="1" parent="h2VIEQUBgTQc3Tr8gH1n-56">
          <mxGeometry x="123.5" y="510" width="263" height="50" as="geometry" />
        </mxCell>
        <mxCell id="h2VIEQUBgTQc3Tr8gH1n-17" style="edgeStyle=orthogonalEdgeStyle;curved=0;rounded=1;orthogonalLoop=1;jettySize=auto;html=1;exitX=0.5;exitY=1;exitDx=0;exitDy=0;entryX=0.5;entryY=0;entryDx=0;entryDy=0;strokeColor=default;align=center;verticalAlign=middle;fontFamily=Helvetica;fontSize=11;fontColor=default;labelBackgroundColor=default;endArrow=none;endFill=0;" edge="1" parent="h2VIEQUBgTQc3Tr8gH1n-56" source="h2VIEQUBgTQc3Tr8gH1n-8" target="h2VIEQUBgTQc3Tr8gH1n-9">
          <mxGeometry relative="1" as="geometry" />
        </mxCell>
        <mxCell id="h2VIEQUBgTQc3Tr8gH1n-8" value="&lt;div&gt;创建服务脚本&lt;/div&gt;" style="rounded=1;whiteSpace=wrap;html=1;fillColor=#dae8fc;strokeColor=#6c8ebf;fontStyle=0" vertex="1" parent="h2VIEQUBgTQc3Tr8gH1n-56">
          <mxGeometry x="181.5" y="610" width="147" height="50" as="geometry" />
        </mxCell>
        <mxCell id="h2VIEQUBgTQc3Tr8gH1n-19" style="edgeStyle=orthogonalEdgeStyle;curved=0;rounded=1;orthogonalLoop=1;jettySize=auto;html=1;exitX=0.5;exitY=1;exitDx=0;exitDy=0;entryX=0.5;entryY=0;entryDx=0;entryDy=0;strokeColor=default;align=center;verticalAlign=middle;fontFamily=Helvetica;fontSize=11;fontColor=default;labelBackgroundColor=default;endArrow=none;endFill=0;" edge="1" parent="h2VIEQUBgTQc3Tr8gH1n-56" source="h2VIEQUBgTQc3Tr8gH1n-9" target="h2VIEQUBgTQc3Tr8gH1n-18">
          <mxGeometry relative="1" as="geometry" />
        </mxCell>
        <mxCell id="h2VIEQUBgTQc3Tr8gH1n-9" value="&lt;div&gt;[Unit]&lt;/div&gt;&lt;div&gt;Description=Tomcat&lt;/div&gt;&lt;div&gt;After=syslog.target.network.target&lt;/div&gt;&lt;div&gt;&lt;br&gt;&lt;/div&gt;&lt;div&gt;[Service]&lt;/div&gt;&lt;div&gt;Type=forking&lt;/div&gt;&lt;div&gt;Environment=Java_HOME=/usr/lib/jvm/jdk-11-oracle-x64/&lt;/div&gt;&lt;div&gt;ExecStart=/usr/local/tomcat/bin/startup.sh&lt;/div&gt;&lt;div&gt;ExecStop=/usr/local/tomcat/bin/shutdown.sh&lt;/div&gt;&lt;div&gt;PrivateTmp=true&lt;/div&gt;&lt;div&gt;User=tomcat&lt;/div&gt;&lt;div&gt;Group=tomcat&lt;/div&gt;&lt;div&gt;&lt;br&gt;&lt;/div&gt;&lt;div&gt;[Install]&lt;/div&gt;&lt;div&gt;WantedBy=multi-user.target&lt;/div&gt;&lt;div&gt;&lt;br&gt;&lt;/div&gt;" style="rounded=1;whiteSpace=wrap;html=1;fillColor=#dae8fc;strokeColor=#6c8ebf;fontStyle=0;align=left;spacingLeft=20;" vertex="1" parent="h2VIEQUBgTQc3Tr8gH1n-56">
          <mxGeometry x="92.5" y="710" width="325" height="310" as="geometry" />
        </mxCell>
        <mxCell id="h2VIEQUBgTQc3Tr8gH1n-18" value="&lt;div&gt;systemctl daemon-reload&lt;/div&gt;" style="rounded=1;whiteSpace=wrap;html=1;fillColor=#dae8fc;strokeColor=#6c8ebf;fontStyle=0" vertex="1" parent="h2VIEQUBgTQc3Tr8gH1n-56">
          <mxGeometry x="155.75" y="1071" width="198.5" height="50" as="geometry" />
        </mxCell>
        <mxCell id="h2VIEQUBgTQc3Tr8gH1n-41" style="edgeStyle=orthogonalEdgeStyle;curved=0;rounded=1;orthogonalLoop=1;jettySize=auto;html=1;exitX=0.5;exitY=1;exitDx=0;exitDy=0;entryX=0.5;entryY=0;entryDx=0;entryDy=0;strokeColor=default;align=center;verticalAlign=middle;fontFamily=Helvetica;fontSize=11;fontColor=default;labelBackgroundColor=default;endArrow=none;endFill=0;" edge="1" parent="h2VIEQUBgTQc3Tr8gH1n-56" source="h2VIEQUBgTQc3Tr8gH1n-20" target="h2VIEQUBgTQc3Tr8gH1n-24">
          <mxGeometry relative="1" as="geometry" />
        </mxCell>
        <mxCell id="h2VIEQUBgTQc3Tr8gH1n-42" style="edgeStyle=orthogonalEdgeStyle;curved=0;rounded=1;orthogonalLoop=1;jettySize=auto;html=1;exitX=0.5;exitY=1;exitDx=0;exitDy=0;entryX=0.5;entryY=0;entryDx=0;entryDy=0;strokeColor=default;align=center;verticalAlign=middle;fontFamily=Helvetica;fontSize=11;fontColor=default;labelBackgroundColor=default;endArrow=none;endFill=0;" edge="1" parent="h2VIEQUBgTQc3Tr8gH1n-56" source="h2VIEQUBgTQc3Tr8gH1n-20" target="h2VIEQUBgTQc3Tr8gH1n-23">
          <mxGeometry relative="1" as="geometry" />
        </mxCell>
        <mxCell id="h2VIEQUBgTQc3Tr8gH1n-43" style="edgeStyle=orthogonalEdgeStyle;curved=0;rounded=1;orthogonalLoop=1;jettySize=auto;html=1;exitX=0.5;exitY=1;exitDx=0;exitDy=0;entryX=0.5;entryY=0;entryDx=0;entryDy=0;strokeColor=default;align=center;verticalAlign=middle;fontFamily=Helvetica;fontSize=11;fontColor=default;labelBackgroundColor=default;endArrow=none;endFill=0;" edge="1" parent="h2VIEQUBgTQc3Tr8gH1n-56" source="h2VIEQUBgTQc3Tr8gH1n-20" target="h2VIEQUBgTQc3Tr8gH1n-22">
          <mxGeometry relative="1" as="geometry" />
        </mxCell>
        <mxCell id="h2VIEQUBgTQc3Tr8gH1n-44" style="edgeStyle=orthogonalEdgeStyle;curved=0;rounded=1;orthogonalLoop=1;jettySize=auto;html=1;exitX=0.5;exitY=1;exitDx=0;exitDy=0;entryX=0.5;entryY=0;entryDx=0;entryDy=0;strokeColor=default;align=center;verticalAlign=middle;fontFamily=Helvetica;fontSize=11;fontColor=default;labelBackgroundColor=default;endArrow=none;endFill=0;" edge="1" parent="h2VIEQUBgTQc3Tr8gH1n-56" source="h2VIEQUBgTQc3Tr8gH1n-20" target="h2VIEQUBgTQc3Tr8gH1n-25">
          <mxGeometry relative="1" as="geometry" />
        </mxCell>
        <mxCell id="h2VIEQUBgTQc3Tr8gH1n-45" style="edgeStyle=orthogonalEdgeStyle;curved=0;rounded=1;orthogonalLoop=1;jettySize=auto;html=1;exitX=0.5;exitY=1;exitDx=0;exitDy=0;entryX=0.5;entryY=0;entryDx=0;entryDy=0;strokeColor=default;align=center;verticalAlign=middle;fontFamily=Helvetica;fontSize=11;fontColor=default;labelBackgroundColor=default;endArrow=none;endFill=0;" edge="1" parent="h2VIEQUBgTQc3Tr8gH1n-56" source="h2VIEQUBgTQc3Tr8gH1n-20" target="h2VIEQUBgTQc3Tr8gH1n-21">
          <mxGeometry relative="1" as="geometry" />
        </mxCell>
        <mxCell id="h2VIEQUBgTQc3Tr8gH1n-46" style="edgeStyle=orthogonalEdgeStyle;curved=0;rounded=1;orthogonalLoop=1;jettySize=auto;html=1;exitX=0.5;exitY=1;exitDx=0;exitDy=0;entryX=0.5;entryY=0;entryDx=0;entryDy=0;strokeColor=default;align=center;verticalAlign=middle;fontFamily=Helvetica;fontSize=11;fontColor=default;labelBackgroundColor=default;endArrow=none;endFill=0;" edge="1" parent="h2VIEQUBgTQc3Tr8gH1n-56" source="h2VIEQUBgTQc3Tr8gH1n-20" target="h2VIEQUBgTQc3Tr8gH1n-26">
          <mxGeometry relative="1" as="geometry" />
        </mxCell>
        <mxCell id="h2VIEQUBgTQc3Tr8gH1n-20" value="Tomcat组成" style="rounded=1;whiteSpace=wrap;html=1;fillColor=#dae8fc;strokeColor=#6c8ebf;fontStyle=1" vertex="1" parent="h2VIEQUBgTQc3Tr8gH1n-56">
          <mxGeometry x="1045" width="150" height="50" as="geometry" />
        </mxCell>
        <mxCell id="h2VIEQUBgTQc3Tr8gH1n-28" style="edgeStyle=orthogonalEdgeStyle;curved=0;rounded=1;orthogonalLoop=1;jettySize=auto;html=1;exitX=0.5;exitY=1;exitDx=0;exitDy=0;entryX=0.5;entryY=0;entryDx=0;entryDy=0;strokeColor=default;align=center;verticalAlign=middle;fontFamily=Helvetica;fontSize=11;fontColor=default;labelBackgroundColor=default;endArrow=none;endFill=0;" edge="1" parent="h2VIEQUBgTQc3Tr8gH1n-56" source="h2VIEQUBgTQc3Tr8gH1n-21" target="h2VIEQUBgTQc3Tr8gH1n-27">
          <mxGeometry relative="1" as="geometry" />
        </mxCell>
        <mxCell id="h2VIEQUBgTQc3Tr8gH1n-21" value="bin" style="rounded=1;whiteSpace=wrap;html=1;fillColor=#dae8fc;strokeColor=#6c8ebf;fontStyle=1" vertex="1" parent="h2VIEQUBgTQc3Tr8gH1n-56">
          <mxGeometry x="560" y="100" width="97" height="50" as="geometry" />
        </mxCell>
        <mxCell id="h2VIEQUBgTQc3Tr8gH1n-30" style="edgeStyle=orthogonalEdgeStyle;curved=0;rounded=1;orthogonalLoop=1;jettySize=auto;html=1;exitX=0.5;exitY=1;exitDx=0;exitDy=0;entryX=0.5;entryY=0;entryDx=0;entryDy=0;strokeColor=default;align=center;verticalAlign=middle;fontFamily=Helvetica;fontSize=11;fontColor=default;labelBackgroundColor=default;endArrow=none;endFill=0;" edge="1" parent="h2VIEQUBgTQc3Tr8gH1n-56" source="h2VIEQUBgTQc3Tr8gH1n-22" target="h2VIEQUBgTQc3Tr8gH1n-29">
          <mxGeometry relative="1" as="geometry" />
        </mxCell>
        <mxCell id="h2VIEQUBgTQc3Tr8gH1n-22" value="conf" style="rounded=1;whiteSpace=wrap;html=1;fillColor=#dae8fc;strokeColor=#6c8ebf;fontStyle=1" vertex="1" parent="h2VIEQUBgTQc3Tr8gH1n-56">
          <mxGeometry x="693" y="100" width="97" height="50" as="geometry" />
        </mxCell>
        <mxCell id="h2VIEQUBgTQc3Tr8gH1n-34" style="edgeStyle=orthogonalEdgeStyle;curved=0;rounded=1;orthogonalLoop=1;jettySize=auto;html=1;exitX=0.5;exitY=1;exitDx=0;exitDy=0;entryX=0.5;entryY=0;entryDx=0;entryDy=0;strokeColor=default;align=center;verticalAlign=middle;fontFamily=Helvetica;fontSize=11;fontColor=default;labelBackgroundColor=default;endArrow=none;endFill=0;" edge="1" parent="h2VIEQUBgTQc3Tr8gH1n-56" source="h2VIEQUBgTQc3Tr8gH1n-23" target="h2VIEQUBgTQc3Tr8gH1n-33">
          <mxGeometry relative="1" as="geometry" />
        </mxCell>
        <mxCell id="h2VIEQUBgTQc3Tr8gH1n-23" value="logs" style="rounded=1;whiteSpace=wrap;html=1;fillColor=#dae8fc;strokeColor=#6c8ebf;fontStyle=1" vertex="1" parent="h2VIEQUBgTQc3Tr8gH1n-56">
          <mxGeometry x="970" y="100" width="97" height="50" as="geometry" />
        </mxCell>
        <mxCell id="h2VIEQUBgTQc3Tr8gH1n-32" style="edgeStyle=orthogonalEdgeStyle;curved=0;rounded=1;orthogonalLoop=1;jettySize=auto;html=1;exitX=0.5;exitY=1;exitDx=0;exitDy=0;entryX=0.5;entryY=0;entryDx=0;entryDy=0;strokeColor=default;align=center;verticalAlign=middle;fontFamily=Helvetica;fontSize=11;fontColor=default;labelBackgroundColor=default;endArrow=none;endFill=0;" edge="1" parent="h2VIEQUBgTQc3Tr8gH1n-56" source="h2VIEQUBgTQc3Tr8gH1n-24" target="h2VIEQUBgTQc3Tr8gH1n-31">
          <mxGeometry relative="1" as="geometry" />
        </mxCell>
        <mxCell id="h2VIEQUBgTQc3Tr8gH1n-24" value="lib" style="rounded=1;whiteSpace=wrap;html=1;fillColor=#dae8fc;strokeColor=#6c8ebf;fontStyle=1" vertex="1" parent="h2VIEQUBgTQc3Tr8gH1n-56">
          <mxGeometry x="830" y="100" width="97" height="50" as="geometry" />
        </mxCell>
        <mxCell id="h2VIEQUBgTQc3Tr8gH1n-36" style="edgeStyle=orthogonalEdgeStyle;curved=0;rounded=1;orthogonalLoop=1;jettySize=auto;html=1;exitX=0.5;exitY=1;exitDx=0;exitDy=0;entryX=0.5;entryY=0;entryDx=0;entryDy=0;strokeColor=default;align=center;verticalAlign=middle;fontFamily=Helvetica;fontSize=11;fontColor=default;labelBackgroundColor=default;endArrow=none;endFill=0;" edge="1" parent="h2VIEQUBgTQc3Tr8gH1n-56" source="h2VIEQUBgTQc3Tr8gH1n-25" target="h2VIEQUBgTQc3Tr8gH1n-35">
          <mxGeometry relative="1" as="geometry" />
        </mxCell>
        <mxCell id="h2VIEQUBgTQc3Tr8gH1n-25" value="webapps" style="rounded=1;whiteSpace=wrap;html=1;fillColor=#dae8fc;strokeColor=#6c8ebf;fontStyle=1" vertex="1" parent="h2VIEQUBgTQc3Tr8gH1n-56">
          <mxGeometry x="1110" y="100" width="97" height="50" as="geometry" />
        </mxCell>
        <mxCell id="h2VIEQUBgTQc3Tr8gH1n-39" style="edgeStyle=orthogonalEdgeStyle;curved=0;rounded=1;orthogonalLoop=1;jettySize=auto;html=1;exitX=0.5;exitY=1;exitDx=0;exitDy=0;entryX=0.5;entryY=0;entryDx=0;entryDy=0;strokeColor=default;align=center;verticalAlign=middle;fontFamily=Helvetica;fontSize=11;fontColor=default;labelBackgroundColor=default;endArrow=none;endFill=0;" edge="1" parent="h2VIEQUBgTQc3Tr8gH1n-56" source="h2VIEQUBgTQc3Tr8gH1n-26" target="h2VIEQUBgTQc3Tr8gH1n-37">
          <mxGeometry relative="1" as="geometry" />
        </mxCell>
        <mxCell id="h2VIEQUBgTQc3Tr8gH1n-26" value="work" style="rounded=1;whiteSpace=wrap;html=1;fillColor=#dae8fc;strokeColor=#6c8ebf;fontStyle=1" vertex="1" parent="h2VIEQUBgTQc3Tr8gH1n-56">
          <mxGeometry x="1281.5" y="100" width="97" height="50" as="geometry" />
        </mxCell>
        <mxCell id="h2VIEQUBgTQc3Tr8gH1n-27" value="&lt;span style=&quot;font-weight: 400;&quot;&gt;管理脚本文件目录&lt;/span&gt;" style="rounded=1;whiteSpace=wrap;html=1;fillColor=#dae8fc;strokeColor=#6c8ebf;fontStyle=1" vertex="1" parent="h2VIEQUBgTQc3Tr8gH1n-56">
          <mxGeometry x="550" y="200" width="117" height="50" as="geometry" />
        </mxCell>
        <mxCell id="h2VIEQUBgTQc3Tr8gH1n-29" value="&lt;span style=&quot;font-weight: 400;&quot;&gt;配置文件目录&lt;/span&gt;" style="rounded=1;whiteSpace=wrap;html=1;fillColor=#dae8fc;strokeColor=#6c8ebf;fontStyle=1" vertex="1" parent="h2VIEQUBgTQc3Tr8gH1n-56">
          <mxGeometry x="683" y="200" width="117" height="50" as="geometry" />
        </mxCell>
        <mxCell id="h2VIEQUBgTQc3Tr8gH1n-31" value="&lt;span style=&quot;font-weight: 400;&quot;&gt;库文件目录&lt;/span&gt;" style="rounded=1;whiteSpace=wrap;html=1;fillColor=#dae8fc;strokeColor=#6c8ebf;fontStyle=1" vertex="1" parent="h2VIEQUBgTQc3Tr8gH1n-56">
          <mxGeometry x="820" y="200" width="117" height="50" as="geometry" />
        </mxCell>
        <mxCell id="h2VIEQUBgTQc3Tr8gH1n-33" value="&lt;span style=&quot;font-weight: 400;&quot;&gt;日志目录&lt;/span&gt;" style="rounded=1;whiteSpace=wrap;html=1;fillColor=#dae8fc;strokeColor=#6c8ebf;fontStyle=1" vertex="1" parent="h2VIEQUBgTQc3Tr8gH1n-56">
          <mxGeometry x="960" y="200" width="117" height="50" as="geometry" />
        </mxCell>
        <mxCell id="h2VIEQUBgTQc3Tr8gH1n-35" value="&lt;span style=&quot;font-weight: 400;&quot;&gt;应用程序目录&lt;/span&gt;" style="rounded=1;whiteSpace=wrap;html=1;fillColor=#dae8fc;strokeColor=#6c8ebf;fontStyle=1" vertex="1" parent="h2VIEQUBgTQc3Tr8gH1n-56">
          <mxGeometry x="1100" y="200" width="117" height="50" as="geometry" />
        </mxCell>
        <mxCell id="h2VIEQUBgTQc3Tr8gH1n-40" style="edgeStyle=orthogonalEdgeStyle;curved=0;rounded=1;orthogonalLoop=1;jettySize=auto;html=1;exitX=0.5;exitY=1;exitDx=0;exitDy=0;entryX=0.5;entryY=0;entryDx=0;entryDy=0;strokeColor=default;align=center;verticalAlign=middle;fontFamily=Helvetica;fontSize=11;fontColor=default;labelBackgroundColor=default;endArrow=none;endFill=0;" edge="1" parent="h2VIEQUBgTQc3Tr8gH1n-56" source="h2VIEQUBgTQc3Tr8gH1n-37" target="h2VIEQUBgTQc3Tr8gH1n-38">
          <mxGeometry relative="1" as="geometry" />
        </mxCell>
        <mxCell id="h2VIEQUBgTQc3Tr8gH1n-37" value="&lt;span style=&quot;font-weight: 400;&quot;&gt;Jsp编译后结果文件&lt;/span&gt;&lt;div&gt;&lt;span style=&quot;font-weight: 400;&quot;&gt;建议提前预热访问&lt;/span&gt;&lt;/div&gt;" style="rounded=1;whiteSpace=wrap;html=1;fillColor=#dae8fc;strokeColor=#6c8ebf;fontStyle=1" vertex="1" parent="h2VIEQUBgTQc3Tr8gH1n-56">
          <mxGeometry x="1240" y="200" width="180" height="50" as="geometry" />
        </mxCell>
        <mxCell id="h2VIEQUBgTQc3Tr8gH1n-38" value="&lt;span style=&quot;font-weight: 400;&quot;&gt;设计应用后&lt;/span&gt;&lt;div&gt;&lt;span style=&quot;font-weight: 400;&quot;&gt;删除此目录数据才能更新&lt;/span&gt;&lt;/div&gt;" style="rounded=1;whiteSpace=wrap;html=1;fillColor=#dae8fc;strokeColor=#6c8ebf;fontStyle=1" vertex="1" parent="h2VIEQUBgTQc3Tr8gH1n-56">
          <mxGeometry x="1240" y="300" width="180" height="50" as="geometry" />
        </mxCell>
        <mxCell id="h2VIEQUBgTQc3Tr8gH1n-50" style="edgeStyle=orthogonalEdgeStyle;curved=0;rounded=1;orthogonalLoop=1;jettySize=auto;html=1;exitX=0.5;exitY=1;exitDx=0;exitDy=0;entryX=0.5;entryY=0;entryDx=0;entryDy=0;strokeColor=default;align=center;verticalAlign=middle;fontFamily=Helvetica;fontSize=11;fontColor=default;labelBackgroundColor=default;endArrow=none;endFill=0;" edge="1" parent="h2VIEQUBgTQc3Tr8gH1n-56" source="h2VIEQUBgTQc3Tr8gH1n-47" target="h2VIEQUBgTQc3Tr8gH1n-48">
          <mxGeometry relative="1" as="geometry" />
        </mxCell>
        <mxCell id="h2VIEQUBgTQc3Tr8gH1n-51" style="edgeStyle=orthogonalEdgeStyle;curved=0;rounded=1;orthogonalLoop=1;jettySize=auto;html=1;exitX=0.5;exitY=1;exitDx=0;exitDy=0;entryX=0.5;entryY=0;entryDx=0;entryDy=0;strokeColor=default;align=center;verticalAlign=middle;fontFamily=Helvetica;fontSize=11;fontColor=default;labelBackgroundColor=default;endArrow=none;endFill=0;" edge="1" parent="h2VIEQUBgTQc3Tr8gH1n-56" source="h2VIEQUBgTQc3Tr8gH1n-47" target="h2VIEQUBgTQc3Tr8gH1n-49">
          <mxGeometry relative="1" as="geometry" />
        </mxCell>
        <mxCell id="h2VIEQUBgTQc3Tr8gH1n-47" value="常用配置文件结构" style="rounded=1;whiteSpace=wrap;html=1;fillColor=#dae8fc;strokeColor=#6c8ebf;fontStyle=1" vertex="1" parent="h2VIEQUBgTQc3Tr8gH1n-56">
          <mxGeometry x="1800" width="150" height="50" as="geometry" />
        </mxCell>
        <mxCell id="h2VIEQUBgTQc3Tr8gH1n-53" style="edgeStyle=orthogonalEdgeStyle;curved=0;rounded=1;orthogonalLoop=1;jettySize=auto;html=1;exitX=0.5;exitY=1;exitDx=0;exitDy=0;entryX=0.5;entryY=0;entryDx=0;entryDy=0;strokeColor=default;align=center;verticalAlign=middle;fontFamily=Helvetica;fontSize=11;fontColor=default;labelBackgroundColor=default;endArrow=none;endFill=0;" edge="1" parent="h2VIEQUBgTQc3Tr8gH1n-56" source="h2VIEQUBgTQc3Tr8gH1n-48" target="h2VIEQUBgTQc3Tr8gH1n-52">
          <mxGeometry relative="1" as="geometry" />
        </mxCell>
        <mxCell id="h2VIEQUBgTQc3Tr8gH1n-48" value="/usr/local/tomcat/conf/web.xml" style="rounded=1;whiteSpace=wrap;html=1;fillColor=#dae8fc;strokeColor=#6c8ebf;fontStyle=1" vertex="1" parent="h2VIEQUBgTQc3Tr8gH1n-56">
          <mxGeometry x="1510" y="100" width="220" height="50" as="geometry" />
        </mxCell>
        <mxCell id="h2VIEQUBgTQc3Tr8gH1n-55" style="edgeStyle=orthogonalEdgeStyle;curved=0;rounded=1;orthogonalLoop=1;jettySize=auto;html=1;exitX=0.5;exitY=1;exitDx=0;exitDy=0;entryX=0.5;entryY=0;entryDx=0;entryDy=0;strokeColor=default;align=center;verticalAlign=middle;fontFamily=Helvetica;fontSize=11;fontColor=default;labelBackgroundColor=default;endArrow=none;endFill=0;" edge="1" parent="h2VIEQUBgTQc3Tr8gH1n-56" source="h2VIEQUBgTQc3Tr8gH1n-49" target="h2VIEQUBgTQc3Tr8gH1n-54">
          <mxGeometry relative="1" as="geometry" />
        </mxCell>
        <mxCell id="h2VIEQUBgTQc3Tr8gH1n-49" value="/usr/local/tomcat/conf/server.xml" style="rounded=1;whiteSpace=wrap;html=1;fillColor=#dae8fc;strokeColor=#6c8ebf;fontStyle=1" vertex="1" parent="h2VIEQUBgTQc3Tr8gH1n-56">
          <mxGeometry x="2040" y="100" width="220" height="50" as="geometry" />
        </mxCell>
        <mxCell id="h2VIEQUBgTQc3Tr8gH1n-52" value="&lt;div&gt;&amp;lt;!-- mime类型 --&amp;gt;&lt;/div&gt;&lt;div&gt;&amp;lt;mime-mapping&amp;gt;&lt;/div&gt;&lt;div&gt;&lt;span style=&quot;white-space: pre;&quot;&gt;&#x9;&lt;/span&gt;...&lt;br&gt;&lt;/div&gt;&lt;div&gt;&amp;lt;/mime-mapping&amp;gt;&lt;/div&gt;&lt;div&gt;&lt;div&gt;&amp;lt;mime-mapping&amp;gt;&lt;/div&gt;&lt;div&gt;&lt;span style=&quot;white-space: pre;&quot;&gt;&#x9;&lt;/span&gt;&amp;lt;extension&amp;gt;zirz&amp;lt;/extension&amp;gt;&lt;br&gt;&lt;/div&gt;&lt;div&gt;&lt;span style=&quot;white-space: pre;&quot;&gt;&#x9;&lt;/span&gt;&amp;lt;mime-type&amp;gt;application/vnd.zul&amp;lt;/mime-type&amp;gt;&lt;br&gt;&lt;/div&gt;&lt;div&gt;&amp;lt;/mime-mapping&amp;gt;&lt;/div&gt;&lt;/div&gt;&lt;div&gt;&lt;div&gt;&amp;lt;mime-mapping&amp;gt;&lt;/div&gt;&lt;div&gt;&lt;span style=&quot;white-space: pre;&quot;&gt;&#x9;&lt;/span&gt;...&lt;br&gt;&lt;/div&gt;&lt;div&gt;&amp;lt;/mime-mapping&amp;gt;&lt;/div&gt;&lt;/div&gt;&lt;div&gt;...&lt;/div&gt;&lt;div&gt;&lt;br&gt;&lt;/div&gt;&lt;div&gt;&lt;div&gt;&amp;lt;!-- 默认主页--&amp;gt;&lt;/div&gt;&lt;div&gt;&amp;lt;welcome-file-list&amp;gt;&lt;/div&gt;&lt;div&gt;&amp;nbsp; &amp;nbsp; &amp;lt;welcome-file&amp;gt;index.html&amp;lt;/welcome-file&amp;gt;&lt;/div&gt;&lt;div&gt;&amp;nbsp; &amp;nbsp; &amp;lt;welcome-file&amp;gt;index.htm&amp;lt;/welcome-file&amp;gt;&lt;/div&gt;&lt;div&gt;&amp;nbsp; &amp;nbsp; &amp;lt;welcome-file&amp;gt;index.jsp&amp;lt;/welcome-file&amp;gt;&lt;/div&gt;&lt;div&gt;&amp;lt;/welcome-file-list&amp;gt;&lt;/div&gt;&lt;/div&gt;&lt;div&gt;&lt;br&gt;&lt;/div&gt;&lt;div&gt;&lt;div&gt;&amp;lt;!-- 错误页面，后续详解--&amp;gt;&lt;/div&gt;&lt;div&gt;&amp;lt;error-page&amp;gt;&lt;/div&gt;&lt;div&gt;&amp;lt;/error-page&amp;gt;&lt;/div&gt;&lt;/div&gt;" style="rounded=1;whiteSpace=wrap;html=1;fillColor=#dae8fc;strokeColor=#6c8ebf;fontStyle=0;align=left;spacingLeft=20;" vertex="1" parent="h2VIEQUBgTQc3Tr8gH1n-56">
          <mxGeometry x="1463.75" y="200" width="312.5" height="390" as="geometry" />
        </mxCell>
        <mxCell id="h2VIEQUBgTQc3Tr8gH1n-54" value="&lt;div&gt;&lt;b&gt;&amp;lt;server port=&quot;&quot; shutdown=&quot;&quot;&amp;gt;&lt;/b&gt;&lt;/div&gt;&lt;div&gt;&lt;b&gt;&lt;br&gt;&lt;/b&gt;&lt;/div&gt;&lt;div&gt;&lt;blockquote style=&quot;margin: 0 0 0 40px; border: none; padding: 0px;&quot;&gt;&lt;div&gt;&lt;b&gt;&amp;lt;listener className=&quot;&quot; /&amp;gt;&lt;/b&gt;&lt;/div&gt;&lt;div&gt;&lt;b&gt;&amp;lt;GlobalNamingResources&amp;gt;&lt;/b&gt;&lt;/div&gt;&lt;div&gt;&lt;b&gt;&lt;span style=&quot;white-space: pre;&quot;&gt;&#x9;&lt;/span&gt;&amp;lt;Resource key=&quot;value&quot; key=&quot;value&quot;&amp;gt;&lt;br&gt;&lt;/b&gt;&lt;/div&gt;&lt;div&gt;&lt;b&gt;&amp;lt;/GlobalNamingResources&amp;gt;&lt;br&gt;&lt;/b&gt;&lt;/div&gt;&lt;div&gt;&lt;b&gt;&lt;br&gt;&lt;/b&gt;&lt;/div&gt;&lt;div&gt;&lt;b&gt;&amp;lt;service&amp;gt;&lt;/b&gt;&lt;/div&gt;&lt;div&gt;&lt;font color=&quot;#ff8000&quot;&gt;#&amp;nbsp;元素定义了Tomcat中的一个服务（实例），一个tomcat服务器可以开多个实例，不同实例可以监听不同的端口，使用不同的配置和部署不同的Web应用程序，每个实例被定义成一个Service，一个Service可以包含多个连接器和多个虚拟主机&lt;/font&gt;&lt;/div&gt;&lt;div&gt;&lt;br&gt;&lt;/div&gt;&lt;div&gt;&lt;br&gt;&lt;/div&gt;&lt;div&gt;&lt;br&gt;&lt;/div&gt;&lt;div&gt;&lt;font color=&quot;#ff8000&quot;&gt;#&amp;nbsp;&amp;lt;Executor&amp;gt;&amp;nbsp; &amp;nbsp; &amp;nbsp; 用于配置Service的共享线程池&lt;/font&gt;&lt;/div&gt;&lt;div&gt;&lt;b&gt;&amp;lt;Executor /&amp;gt;&lt;/b&gt;&lt;/div&gt;&lt;div&gt;&lt;br&gt;&lt;/div&gt;&lt;div&gt;&lt;font color=&quot;#ff8000&quot;&gt;#用于配置Tomcat的连接器，负责处理客户端与Tomcat之间的通信，一个service中可以有多个connector,每个connector定义了一个端口和协议的组合，允许Tomcat在不同的端口上监听不同的网络协议或配置不同的连接器属性&lt;/font&gt;&lt;/div&gt;&lt;div&gt;&lt;b&gt;&amp;lt;Connector ... /&amp;gt;&lt;/b&gt;&lt;/div&gt;&lt;div&gt;&lt;br&gt;&lt;/div&gt;&lt;div&gt;&lt;b&gt;&amp;lt;Engine&amp;gt;&lt;/b&gt;&lt;/div&gt;&lt;div&gt;&lt;font color=&quot;#ff8000&quot;&gt;#&amp;nbsp;用于配置Tomcat的连接器，负责处理客户端与Tomcat之间的通信，一个service中可以有多个connector,每个connector定义了一个端口和协议的组合，允许Tomcat在不同的端口上监听不同的网络协议或配置不同的连接器属性&lt;/font&gt;&lt;/div&gt;&lt;div&gt;&lt;br&gt;&lt;/div&gt;&lt;div&gt;&lt;br&gt;&lt;/div&gt;&lt;div&gt;&lt;div&gt;&amp;nbsp;&lt;b&gt; &amp;nbsp; &amp;lt;Host &amp;gt;&lt;/b&gt;&lt;/div&gt;&lt;div&gt;&lt;span style=&quot;white-space: pre;&quot;&gt;&#x9;&lt;/span&gt;&lt;span style=&quot;white-space: pre;&quot;&gt;&#x9;&lt;/span&gt;&lt;font color=&quot;#ff8000&quot;&gt;#用来定义虚拟主机&lt;/font&gt;&lt;br&gt;&lt;/div&gt;&lt;div&gt;&lt;span style=&quot;white-space: pre;&quot;&gt;&#x9;&lt;/span&gt;&lt;span style=&quot;white-space: pre;&quot;&gt;&#x9;&lt;/span&gt;&lt;b&gt;&amp;lt;Valve&amp;gt;&lt;/b&gt;&lt;br&gt;&lt;/div&gt;&lt;div&gt;&lt;span style=&quot;white-space: pre;&quot;&gt;&#x9;&lt;/span&gt;&lt;span style=&quot;white-space: pre;&quot;&gt;&#x9;&lt;/span&gt;&lt;span style=&quot;white-space: pre;&quot;&gt;&#x9;&lt;/span&gt;&lt;font color=&quot;#ff8000&quot;&gt;# 定义特定功能组件&lt;/font&gt;&lt;br&gt;&lt;/div&gt;&lt;div&gt;&lt;span style=&quot;white-space: pre;&quot;&gt;&#x9;&lt;/span&gt;&lt;span style=&quot;white-space: pre;&quot;&gt;&#x9;&lt;/span&gt;&lt;b&gt;&amp;lt;/Valve&amp;gt;&lt;br&gt;&lt;/b&gt;&lt;/div&gt;&lt;div&gt;&lt;b&gt;&lt;br&gt;&lt;/b&gt;&lt;/div&gt;&lt;div&gt;&lt;b&gt;&amp;nbsp; &amp;nbsp; &amp;lt;/Host&amp;gt;&lt;/b&gt;&lt;/div&gt;&lt;/div&gt;&lt;div&gt;&lt;b&gt;&lt;span style=&quot;white-space: pre;&quot;&gt;&#x9;&lt;/span&gt;&lt;br&gt;&lt;/b&gt;&lt;/div&gt;&lt;div&gt;&lt;b&gt;&amp;nbsp; &amp;nbsp; &amp;lt;Context&amp;gt;&lt;/b&gt;&lt;/div&gt;&lt;div&gt;&lt;span style=&quot;white-space: pre;&quot;&gt;&#x9;&lt;/span&gt;&lt;span style=&quot;white-space: pre;&quot;&gt;&#x9;&lt;/span&gt;&lt;font color=&quot;#ff8000&quot;&gt;# 配置WEBAPP的上下文&lt;/font&gt;&lt;/div&gt;&lt;div&gt;&lt;font color=&quot;#ff8000&quot;&gt;&lt;span style=&quot;white-space: pre;&quot;&gt;&#x9;&lt;/span&gt;&lt;span style=&quot;white-space: pre;&quot;&gt;&#x9;&lt;/span&gt;# 类似location / {}&lt;/font&gt;&lt;br&gt;&lt;/div&gt;&lt;div&gt;&amp;nbsp; &lt;b&gt;&amp;nbsp; &amp;lt;/Context&amp;gt;&lt;br&gt;&lt;/b&gt;&lt;/div&gt;&lt;div&gt;&lt;b&gt;&lt;br&gt;&lt;/b&gt;&lt;/div&gt;&lt;div&gt;&lt;b&gt;&amp;lt;/Engine&amp;gt;&lt;/b&gt;&lt;/div&gt;&lt;div&gt;&lt;b&gt;&lt;br&gt;&lt;/b&gt;&lt;/div&gt;&lt;div&gt;&lt;b&gt;&lt;br&gt;&lt;/b&gt;&lt;/div&gt;&lt;div&gt;&lt;b&gt;&amp;lt;/service&amp;gt;&lt;br&gt;&lt;/b&gt;&lt;/div&gt;&lt;/blockquote&gt;&lt;/div&gt;&lt;div&gt;&lt;b&gt;&amp;lt;/server&amp;gt;&lt;/b&gt;&lt;/div&gt;" style="rounded=1;whiteSpace=wrap;html=1;fillColor=#dae8fc;strokeColor=#6c8ebf;fontStyle=0;align=left;spacingLeft=20;spacingRight=10;" vertex="1" parent="h2VIEQUBgTQc3Tr8gH1n-56">
          <mxGeometry x="1980" y="200" width="340" height="820" as="geometry" />
        </mxCell>
        <mxCell id="h2VIEQUBgTQc3Tr8gH1n-123" value="" style="group" vertex="1" connectable="0" parent="1">
          <mxGeometry x="-340" y="1370" width="2290" height="550" as="geometry" />
        </mxCell>
        <mxCell id="h2VIEQUBgTQc3Tr8gH1n-119" style="edgeStyle=orthogonalEdgeStyle;curved=0;rounded=1;orthogonalLoop=1;jettySize=auto;html=1;exitX=0.5;exitY=1;exitDx=0;exitDy=0;entryX=0.5;entryY=0;entryDx=0;entryDy=0;strokeColor=default;align=center;verticalAlign=middle;fontFamily=Helvetica;fontSize=11;fontColor=default;labelBackgroundColor=default;endArrow=none;endFill=0;" edge="1" parent="h2VIEQUBgTQc3Tr8gH1n-123" source="h2VIEQUBgTQc3Tr8gH1n-62" target="h2VIEQUBgTQc3Tr8gH1n-63">
          <mxGeometry relative="1" as="geometry" />
        </mxCell>
        <mxCell id="h2VIEQUBgTQc3Tr8gH1n-120" style="edgeStyle=orthogonalEdgeStyle;curved=0;rounded=1;orthogonalLoop=1;jettySize=auto;html=1;exitX=0.5;exitY=1;exitDx=0;exitDy=0;entryX=0.5;entryY=0;entryDx=0;entryDy=0;strokeColor=default;align=center;verticalAlign=middle;fontFamily=Helvetica;fontSize=11;fontColor=default;labelBackgroundColor=default;endArrow=none;endFill=0;" edge="1" parent="h2VIEQUBgTQc3Tr8gH1n-123" source="h2VIEQUBgTQc3Tr8gH1n-62" target="h2VIEQUBgTQc3Tr8gH1n-99">
          <mxGeometry relative="1" as="geometry" />
        </mxCell>
        <mxCell id="h2VIEQUBgTQc3Tr8gH1n-121" style="edgeStyle=orthogonalEdgeStyle;curved=0;rounded=1;orthogonalLoop=1;jettySize=auto;html=1;exitX=0.5;exitY=1;exitDx=0;exitDy=0;entryX=0.5;entryY=0;entryDx=0;entryDy=0;strokeColor=default;align=center;verticalAlign=middle;fontFamily=Helvetica;fontSize=11;fontColor=default;labelBackgroundColor=default;endArrow=none;endFill=0;" edge="1" parent="h2VIEQUBgTQc3Tr8gH1n-123" source="h2VIEQUBgTQc3Tr8gH1n-62" target="h2VIEQUBgTQc3Tr8gH1n-109">
          <mxGeometry relative="1" as="geometry" />
        </mxCell>
        <mxCell id="h2VIEQUBgTQc3Tr8gH1n-62" value="Tomcat常用配置" style="rounded=1;whiteSpace=wrap;html=1;fillColor=#008a00;fontColor=#ffffff;strokeColor=#005700;fontStyle=1" vertex="1" parent="h2VIEQUBgTQc3Tr8gH1n-123">
          <mxGeometry x="1100" y="-10" width="120" height="50" as="geometry" />
        </mxCell>
        <mxCell id="h2VIEQUBgTQc3Tr8gH1n-97" style="edgeStyle=orthogonalEdgeStyle;curved=0;rounded=1;orthogonalLoop=1;jettySize=auto;html=1;exitX=0.5;exitY=1;exitDx=0;exitDy=0;entryX=0.5;entryY=0;entryDx=0;entryDy=0;strokeColor=default;align=center;verticalAlign=middle;fontFamily=Helvetica;fontSize=11;fontColor=default;labelBackgroundColor=default;endArrow=none;endFill=0;" edge="1" parent="h2VIEQUBgTQc3Tr8gH1n-123" source="h2VIEQUBgTQc3Tr8gH1n-63" target="h2VIEQUBgTQc3Tr8gH1n-69">
          <mxGeometry relative="1" as="geometry" />
        </mxCell>
        <mxCell id="h2VIEQUBgTQc3Tr8gH1n-98" style="edgeStyle=orthogonalEdgeStyle;curved=0;rounded=1;orthogonalLoop=1;jettySize=auto;html=1;exitX=0.5;exitY=1;exitDx=0;exitDy=0;entryX=0.5;entryY=0;entryDx=0;entryDy=0;strokeColor=default;align=center;verticalAlign=middle;fontFamily=Helvetica;fontSize=11;fontColor=default;labelBackgroundColor=default;endArrow=none;endFill=0;" edge="1" parent="h2VIEQUBgTQc3Tr8gH1n-123" source="h2VIEQUBgTQc3Tr8gH1n-63" target="h2VIEQUBgTQc3Tr8gH1n-72">
          <mxGeometry relative="1" as="geometry" />
        </mxCell>
        <mxCell id="h2VIEQUBgTQc3Tr8gH1n-63" value="日志配置" style="rounded=1;whiteSpace=wrap;html=1;fillColor=#d5e8d4;strokeColor=#82b366;fontStyle=1" vertex="1" parent="h2VIEQUBgTQc3Tr8gH1n-123">
          <mxGeometry x="451.5" y="90" width="120" height="50" as="geometry" />
        </mxCell>
        <mxCell id="h2VIEQUBgTQc3Tr8gH1n-67" style="edgeStyle=orthogonalEdgeStyle;curved=0;rounded=1;orthogonalLoop=1;jettySize=auto;html=1;exitX=0.5;exitY=1;exitDx=0;exitDy=0;entryX=0.5;entryY=0;entryDx=0;entryDy=0;strokeColor=default;align=center;verticalAlign=middle;fontFamily=Helvetica;fontSize=11;fontColor=default;labelBackgroundColor=default;endArrow=none;endFill=0;" edge="1" parent="h2VIEQUBgTQc3Tr8gH1n-123" source="h2VIEQUBgTQc3Tr8gH1n-64" target="h2VIEQUBgTQc3Tr8gH1n-66">
          <mxGeometry relative="1" as="geometry" />
        </mxCell>
        <mxCell id="h2VIEQUBgTQc3Tr8gH1n-64" value="server.xml ---&amp;gt;&amp;nbsp; &amp;lt;host&amp;gt;...&amp;lt;/host&amp;gt;" style="rounded=1;whiteSpace=wrap;html=1;fillColor=#d5e8d4;strokeColor=#82b366;fontStyle=0" vertex="1" parent="h2VIEQUBgTQc3Tr8gH1n-123">
          <mxGeometry y="290" width="223" height="50" as="geometry" />
        </mxCell>
        <mxCell id="h2VIEQUBgTQc3Tr8gH1n-66" value="在server.xml文件中&lt;div&gt;&amp;lt;host&amp;gt;标签内部指定该虚拟主机的日志&lt;/div&gt;" style="rounded=1;whiteSpace=wrap;html=1;fillColor=#d5e8d4;strokeColor=#82b366;fontStyle=0" vertex="1" parent="h2VIEQUBgTQc3Tr8gH1n-123">
          <mxGeometry y="390" width="223" height="50" as="geometry" />
        </mxCell>
        <mxCell id="h2VIEQUBgTQc3Tr8gH1n-73" style="edgeStyle=orthogonalEdgeStyle;curved=0;rounded=1;orthogonalLoop=1;jettySize=auto;html=1;exitX=0.5;exitY=1;exitDx=0;exitDy=0;entryX=0.5;entryY=0;entryDx=0;entryDy=0;strokeColor=default;align=center;verticalAlign=middle;fontFamily=Helvetica;fontSize=11;fontColor=default;labelBackgroundColor=default;endArrow=none;endFill=0;" edge="1" parent="h2VIEQUBgTQc3Tr8gH1n-123" source="h2VIEQUBgTQc3Tr8gH1n-69" target="h2VIEQUBgTQc3Tr8gH1n-64">
          <mxGeometry relative="1" as="geometry" />
        </mxCell>
        <mxCell id="h2VIEQUBgTQc3Tr8gH1n-69" value="配置位置" style="rounded=1;whiteSpace=wrap;html=1;fillColor=#d5e8d4;strokeColor=#82b366;fontStyle=1" vertex="1" parent="h2VIEQUBgTQc3Tr8gH1n-123">
          <mxGeometry x="51.5" y="180" width="120" height="50" as="geometry" />
        </mxCell>
        <mxCell id="h2VIEQUBgTQc3Tr8gH1n-92" style="edgeStyle=orthogonalEdgeStyle;curved=0;rounded=1;orthogonalLoop=1;jettySize=auto;html=1;exitX=0.5;exitY=1;exitDx=0;exitDy=0;entryX=0.5;entryY=0;entryDx=0;entryDy=0;strokeColor=default;align=center;verticalAlign=middle;fontFamily=Helvetica;fontSize=11;fontColor=default;labelBackgroundColor=default;endArrow=none;endFill=0;" edge="1" parent="h2VIEQUBgTQc3Tr8gH1n-123" source="h2VIEQUBgTQc3Tr8gH1n-72" target="h2VIEQUBgTQc3Tr8gH1n-74">
          <mxGeometry relative="1" as="geometry" />
        </mxCell>
        <mxCell id="h2VIEQUBgTQc3Tr8gH1n-72" value="配置格式" style="rounded=1;whiteSpace=wrap;html=1;fillColor=#d5e8d4;strokeColor=#82b366;fontStyle=1" vertex="1" parent="h2VIEQUBgTQc3Tr8gH1n-123">
          <mxGeometry x="811.5" y="180" width="120" height="50" as="geometry" />
        </mxCell>
        <mxCell id="h2VIEQUBgTQc3Tr8gH1n-91" style="edgeStyle=orthogonalEdgeStyle;curved=0;rounded=1;orthogonalLoop=1;jettySize=auto;html=1;exitX=0.5;exitY=1;exitDx=0;exitDy=0;entryX=0.5;entryY=0;entryDx=0;entryDy=0;strokeColor=default;align=center;verticalAlign=middle;fontFamily=Helvetica;fontSize=11;fontColor=default;labelBackgroundColor=default;endArrow=none;endFill=0;" edge="1" parent="h2VIEQUBgTQc3Tr8gH1n-123" source="h2VIEQUBgTQc3Tr8gH1n-74" target="h2VIEQUBgTQc3Tr8gH1n-82">
          <mxGeometry relative="1" as="geometry" />
        </mxCell>
        <mxCell id="h2VIEQUBgTQc3Tr8gH1n-93" style="edgeStyle=orthogonalEdgeStyle;curved=0;rounded=1;orthogonalLoop=1;jettySize=auto;html=1;exitX=0.5;exitY=1;exitDx=0;exitDy=0;entryX=0.5;entryY=0;entryDx=0;entryDy=0;strokeColor=default;align=center;verticalAlign=middle;fontFamily=Helvetica;fontSize=11;fontColor=default;labelBackgroundColor=default;endArrow=none;endFill=0;" edge="1" parent="h2VIEQUBgTQc3Tr8gH1n-123" source="h2VIEQUBgTQc3Tr8gH1n-74" target="h2VIEQUBgTQc3Tr8gH1n-79">
          <mxGeometry relative="1" as="geometry" />
        </mxCell>
        <mxCell id="h2VIEQUBgTQc3Tr8gH1n-94" style="edgeStyle=orthogonalEdgeStyle;curved=0;rounded=1;orthogonalLoop=1;jettySize=auto;html=1;exitX=0.5;exitY=1;exitDx=0;exitDy=0;entryX=0.5;entryY=0;entryDx=0;entryDy=0;strokeColor=default;align=center;verticalAlign=middle;fontFamily=Helvetica;fontSize=11;fontColor=default;labelBackgroundColor=default;endArrow=none;endFill=0;" edge="1" parent="h2VIEQUBgTQc3Tr8gH1n-123" source="h2VIEQUBgTQc3Tr8gH1n-74" target="h2VIEQUBgTQc3Tr8gH1n-85">
          <mxGeometry relative="1" as="geometry" />
        </mxCell>
        <mxCell id="h2VIEQUBgTQc3Tr8gH1n-95" style="edgeStyle=orthogonalEdgeStyle;curved=0;rounded=1;orthogonalLoop=1;jettySize=auto;html=1;exitX=0.5;exitY=1;exitDx=0;exitDy=0;entryX=0.5;entryY=0;entryDx=0;entryDy=0;strokeColor=default;align=center;verticalAlign=middle;fontFamily=Helvetica;fontSize=11;fontColor=default;labelBackgroundColor=default;endArrow=none;endFill=0;" edge="1" parent="h2VIEQUBgTQc3Tr8gH1n-123" source="h2VIEQUBgTQc3Tr8gH1n-74" target="h2VIEQUBgTQc3Tr8gH1n-76">
          <mxGeometry relative="1" as="geometry" />
        </mxCell>
        <mxCell id="h2VIEQUBgTQc3Tr8gH1n-96" style="edgeStyle=orthogonalEdgeStyle;curved=0;rounded=1;orthogonalLoop=1;jettySize=auto;html=1;exitX=0.5;exitY=1;exitDx=0;exitDy=0;entryX=0.5;entryY=0;entryDx=0;entryDy=0;strokeColor=default;align=center;verticalAlign=middle;fontFamily=Helvetica;fontSize=11;fontColor=default;labelBackgroundColor=default;endArrow=none;endFill=0;" edge="1" parent="h2VIEQUBgTQc3Tr8gH1n-123" source="h2VIEQUBgTQc3Tr8gH1n-74" target="h2VIEQUBgTQc3Tr8gH1n-88">
          <mxGeometry relative="1" as="geometry" />
        </mxCell>
        <mxCell id="h2VIEQUBgTQc3Tr8gH1n-74" value="&lt;div&gt;&amp;lt;Valve className=&quot;org.apache.catalina.valves.AccessLogValve&quot; directory=&quot;logs&quot;&lt;/div&gt;&lt;div&gt;&amp;nbsp; &amp;nbsp; &amp;nbsp; &amp;nbsp; &amp;nbsp; &amp;nbsp; &amp;nbsp; &amp;nbsp;prefix=&quot;localhost_access_log&quot; suffix=&quot;.txt&quot;&lt;/div&gt;&lt;div&gt;&amp;nbsp; &amp;nbsp; &amp;nbsp; &amp;nbsp; &amp;nbsp; &amp;nbsp; &amp;nbsp; &amp;nbsp;pattern=&quot;%h %l %u %t &amp;amp;quot;%r&amp;amp;quot; %s %b&quot; /&amp;gt;&lt;/div&gt;" style="rounded=1;whiteSpace=wrap;html=1;fillColor=#d5e8d4;strokeColor=#82b366;fontStyle=0;align=left;spacingLeft=20;" vertex="1" parent="h2VIEQUBgTQc3Tr8gH1n-123">
          <mxGeometry x="631.5" y="290" width="480" height="50" as="geometry" />
        </mxCell>
        <mxCell id="h2VIEQUBgTQc3Tr8gH1n-78" style="edgeStyle=orthogonalEdgeStyle;curved=0;rounded=1;orthogonalLoop=1;jettySize=auto;html=1;exitX=0.5;exitY=1;exitDx=0;exitDy=0;entryX=0.5;entryY=0;entryDx=0;entryDy=0;strokeColor=default;align=center;verticalAlign=middle;fontFamily=Helvetica;fontSize=11;fontColor=default;labelBackgroundColor=default;endArrow=none;endFill=0;" edge="1" parent="h2VIEQUBgTQc3Tr8gH1n-123" source="h2VIEQUBgTQc3Tr8gH1n-76" target="h2VIEQUBgTQc3Tr8gH1n-77">
          <mxGeometry relative="1" as="geometry" />
        </mxCell>
        <mxCell id="h2VIEQUBgTQc3Tr8gH1n-76" value="class=&quot;org.apache.catalina.valves.AccessLogValve&quot;" style="rounded=1;whiteSpace=wrap;html=1;fillColor=#d5e8d4;strokeColor=#82b366;fontStyle=0" vertex="1" parent="h2VIEQUBgTQc3Tr8gH1n-123">
          <mxGeometry x="261.5" y="390" width="330" height="50" as="geometry" />
        </mxCell>
        <mxCell id="h2VIEQUBgTQc3Tr8gH1n-77" value="指定日志类" style="rounded=1;whiteSpace=wrap;html=1;fillColor=#d5e8d4;strokeColor=#82b366;fontStyle=0" vertex="1" parent="h2VIEQUBgTQc3Tr8gH1n-123">
          <mxGeometry x="361.5" y="480" width="130" height="50" as="geometry" />
        </mxCell>
        <mxCell id="h2VIEQUBgTQc3Tr8gH1n-81" style="edgeStyle=orthogonalEdgeStyle;curved=0;rounded=1;orthogonalLoop=1;jettySize=auto;html=1;exitX=0.5;exitY=1;exitDx=0;exitDy=0;entryX=0.5;entryY=0;entryDx=0;entryDy=0;strokeColor=default;align=center;verticalAlign=middle;fontFamily=Helvetica;fontSize=11;fontColor=default;labelBackgroundColor=default;endArrow=none;endFill=0;" edge="1" parent="h2VIEQUBgTQc3Tr8gH1n-123" source="h2VIEQUBgTQc3Tr8gH1n-79" target="h2VIEQUBgTQc3Tr8gH1n-80">
          <mxGeometry relative="1" as="geometry" />
        </mxCell>
        <mxCell id="h2VIEQUBgTQc3Tr8gH1n-79" value="directory=&quot;path&quot;" style="rounded=1;whiteSpace=wrap;html=1;fillColor=#d5e8d4;strokeColor=#82b366;fontStyle=0" vertex="1" parent="h2VIEQUBgTQc3Tr8gH1n-123">
          <mxGeometry x="621.5" y="390" width="130" height="50" as="geometry" />
        </mxCell>
        <mxCell id="h2VIEQUBgTQc3Tr8gH1n-80" value="日志文件目录" style="rounded=1;whiteSpace=wrap;html=1;fillColor=#d5e8d4;strokeColor=#82b366;fontStyle=0" vertex="1" parent="h2VIEQUBgTQc3Tr8gH1n-123">
          <mxGeometry x="621.5" y="480" width="130" height="50" as="geometry" />
        </mxCell>
        <mxCell id="h2VIEQUBgTQc3Tr8gH1n-84" style="edgeStyle=orthogonalEdgeStyle;curved=0;rounded=1;orthogonalLoop=1;jettySize=auto;html=1;exitX=0.5;exitY=1;exitDx=0;exitDy=0;entryX=0.5;entryY=0;entryDx=0;entryDy=0;strokeColor=default;align=center;verticalAlign=middle;fontFamily=Helvetica;fontSize=11;fontColor=default;labelBackgroundColor=default;endArrow=none;endFill=0;" edge="1" parent="h2VIEQUBgTQc3Tr8gH1n-123" source="h2VIEQUBgTQc3Tr8gH1n-82" target="h2VIEQUBgTQc3Tr8gH1n-83">
          <mxGeometry relative="1" as="geometry" />
        </mxCell>
        <mxCell id="h2VIEQUBgTQc3Tr8gH1n-82" value="prefix=&quot;localhost_access_log&quot;" style="rounded=1;whiteSpace=wrap;html=1;fillColor=#d5e8d4;strokeColor=#82b366;fontStyle=0" vertex="1" parent="h2VIEQUBgTQc3Tr8gH1n-123">
          <mxGeometry x="781.5" y="390" width="180" height="50" as="geometry" />
        </mxCell>
        <mxCell id="h2VIEQUBgTQc3Tr8gH1n-83" value="日志文件前缀" style="rounded=1;whiteSpace=wrap;html=1;fillColor=#d5e8d4;strokeColor=#82b366;fontStyle=0" vertex="1" parent="h2VIEQUBgTQc3Tr8gH1n-123">
          <mxGeometry x="806.5" y="480" width="130" height="50" as="geometry" />
        </mxCell>
        <mxCell id="h2VIEQUBgTQc3Tr8gH1n-87" style="edgeStyle=orthogonalEdgeStyle;curved=0;rounded=1;orthogonalLoop=1;jettySize=auto;html=1;exitX=0.5;exitY=1;exitDx=0;exitDy=0;entryX=0.5;entryY=0;entryDx=0;entryDy=0;strokeColor=default;align=center;verticalAlign=middle;fontFamily=Helvetica;fontSize=11;fontColor=default;labelBackgroundColor=default;endArrow=none;endFill=0;" edge="1" parent="h2VIEQUBgTQc3Tr8gH1n-123" source="h2VIEQUBgTQc3Tr8gH1n-85" target="h2VIEQUBgTQc3Tr8gH1n-86">
          <mxGeometry relative="1" as="geometry" />
        </mxCell>
        <mxCell id="h2VIEQUBgTQc3Tr8gH1n-85" value="suffix=&quot;.txt&quot;" style="rounded=1;whiteSpace=wrap;html=1;fillColor=#d5e8d4;strokeColor=#82b366;fontStyle=0" vertex="1" parent="h2VIEQUBgTQc3Tr8gH1n-123">
          <mxGeometry x="986.5" y="390" width="100" height="50" as="geometry" />
        </mxCell>
        <mxCell id="h2VIEQUBgTQc3Tr8gH1n-86" value="日志文件后缀" style="rounded=1;whiteSpace=wrap;html=1;fillColor=#d5e8d4;strokeColor=#82b366;fontStyle=0" vertex="1" parent="h2VIEQUBgTQc3Tr8gH1n-123">
          <mxGeometry x="971.5" y="480" width="130" height="50" as="geometry" />
        </mxCell>
        <mxCell id="h2VIEQUBgTQc3Tr8gH1n-90" style="edgeStyle=orthogonalEdgeStyle;curved=0;rounded=1;orthogonalLoop=1;jettySize=auto;html=1;exitX=0.5;exitY=1;exitDx=0;exitDy=0;entryX=0.5;entryY=0;entryDx=0;entryDy=0;strokeColor=default;align=center;verticalAlign=middle;fontFamily=Helvetica;fontSize=11;fontColor=default;labelBackgroundColor=default;endArrow=none;endFill=0;" edge="1" parent="h2VIEQUBgTQc3Tr8gH1n-123" source="h2VIEQUBgTQc3Tr8gH1n-88" target="h2VIEQUBgTQc3Tr8gH1n-89">
          <mxGeometry relative="1" as="geometry" />
        </mxCell>
        <mxCell id="h2VIEQUBgTQc3Tr8gH1n-88" value="pattern=&quot;%h %l ...&quot;" style="rounded=1;whiteSpace=wrap;html=1;fillColor=#d5e8d4;strokeColor=#82b366;fontStyle=0" vertex="1" parent="h2VIEQUBgTQc3Tr8gH1n-123">
          <mxGeometry x="1111.5" y="390" width="150" height="50" as="geometry" />
        </mxCell>
        <mxCell id="h2VIEQUBgTQc3Tr8gH1n-89" value="日志文件内容格式" style="rounded=1;whiteSpace=wrap;html=1;fillColor=#d5e8d4;strokeColor=#82b366;fontStyle=0" vertex="1" parent="h2VIEQUBgTQc3Tr8gH1n-123">
          <mxGeometry x="1121.5" y="480" width="130" height="50" as="geometry" />
        </mxCell>
        <mxCell id="h2VIEQUBgTQc3Tr8gH1n-107" style="edgeStyle=orthogonalEdgeStyle;curved=0;rounded=1;orthogonalLoop=1;jettySize=auto;html=1;exitX=0.5;exitY=1;exitDx=0;exitDy=0;strokeColor=default;align=center;verticalAlign=middle;fontFamily=Helvetica;fontSize=11;fontColor=default;labelBackgroundColor=default;endArrow=none;endFill=0;" edge="1" parent="h2VIEQUBgTQc3Tr8gH1n-123" source="h2VIEQUBgTQc3Tr8gH1n-99" target="h2VIEQUBgTQc3Tr8gH1n-101">
          <mxGeometry relative="1" as="geometry" />
        </mxCell>
        <mxCell id="h2VIEQUBgTQc3Tr8gH1n-108" style="edgeStyle=orthogonalEdgeStyle;curved=0;rounded=1;orthogonalLoop=1;jettySize=auto;html=1;exitX=0.5;exitY=1;exitDx=0;exitDy=0;entryX=0.5;entryY=0;entryDx=0;entryDy=0;strokeColor=default;align=center;verticalAlign=middle;fontFamily=Helvetica;fontSize=11;fontColor=default;labelBackgroundColor=default;endArrow=none;endFill=0;" edge="1" parent="h2VIEQUBgTQc3Tr8gH1n-123" source="h2VIEQUBgTQc3Tr8gH1n-99" target="h2VIEQUBgTQc3Tr8gH1n-104">
          <mxGeometry relative="1" as="geometry" />
        </mxCell>
        <mxCell id="h2VIEQUBgTQc3Tr8gH1n-99" value="默认端口配置" style="rounded=1;whiteSpace=wrap;html=1;fillColor=#d5e8d4;strokeColor=#82b366;fontStyle=1" vertex="1" parent="h2VIEQUBgTQc3Tr8gH1n-123">
          <mxGeometry x="1357.5" y="90" width="120" height="50" as="geometry" />
        </mxCell>
        <mxCell id="h2VIEQUBgTQc3Tr8gH1n-103" style="edgeStyle=orthogonalEdgeStyle;curved=0;rounded=1;orthogonalLoop=1;jettySize=auto;html=1;exitX=0.5;exitY=1;exitDx=0;exitDy=0;entryX=0.5;entryY=0;entryDx=0;entryDy=0;strokeColor=default;align=center;verticalAlign=middle;fontFamily=Helvetica;fontSize=11;fontColor=default;labelBackgroundColor=default;endArrow=none;endFill=0;" edge="1" parent="h2VIEQUBgTQc3Tr8gH1n-123" source="h2VIEQUBgTQc3Tr8gH1n-101" target="h2VIEQUBgTQc3Tr8gH1n-102">
          <mxGeometry relative="1" as="geometry" />
        </mxCell>
        <mxCell id="h2VIEQUBgTQc3Tr8gH1n-101" value="配置文件为位置" style="rounded=1;whiteSpace=wrap;html=1;fillColor=#d5e8d4;strokeColor=#82b366;fontStyle=1" vertex="1" parent="h2VIEQUBgTQc3Tr8gH1n-123">
          <mxGeometry x="1227.5" y="180" width="120" height="50" as="geometry" />
        </mxCell>
        <mxCell id="h2VIEQUBgTQc3Tr8gH1n-102" value="con/server.xml" style="rounded=1;whiteSpace=wrap;html=1;fillColor=#d5e8d4;strokeColor=#82b366;fontStyle=0" vertex="1" parent="h2VIEQUBgTQc3Tr8gH1n-123">
          <mxGeometry x="1220" y="290" width="135" height="50" as="geometry" />
        </mxCell>
        <mxCell id="h2VIEQUBgTQc3Tr8gH1n-106" style="edgeStyle=orthogonalEdgeStyle;curved=0;rounded=1;orthogonalLoop=1;jettySize=auto;html=1;exitX=0.5;exitY=1;exitDx=0;exitDy=0;entryX=0.5;entryY=0;entryDx=0;entryDy=0;strokeColor=default;align=center;verticalAlign=middle;fontFamily=Helvetica;fontSize=11;fontColor=default;labelBackgroundColor=default;endArrow=none;endFill=0;" edge="1" parent="h2VIEQUBgTQc3Tr8gH1n-123" source="h2VIEQUBgTQc3Tr8gH1n-104" target="h2VIEQUBgTQc3Tr8gH1n-105">
          <mxGeometry relative="1" as="geometry" />
        </mxCell>
        <mxCell id="h2VIEQUBgTQc3Tr8gH1n-104" value="配置格式" style="rounded=1;whiteSpace=wrap;html=1;fillColor=#d5e8d4;strokeColor=#82b366;fontStyle=1" vertex="1" parent="h2VIEQUBgTQc3Tr8gH1n-123">
          <mxGeometry x="1477.5" y="180" width="120" height="50" as="geometry" />
        </mxCell>
        <mxCell id="h2VIEQUBgTQc3Tr8gH1n-105" value="&lt;div&gt;&amp;lt;Connector port=&quot;8080&quot; protocol=&quot;HTTP/1.1&quot;&amp;nbsp; &amp;nbsp; &amp;nbsp; &amp;nbsp;&lt;/div&gt;&lt;div&gt;&amp;nbsp; &amp;nbsp; &amp;nbsp; &amp;nbsp; &amp;nbsp; connectionTimeout=&quot;20000&quot;&amp;nbsp; &amp;nbsp; &amp;nbsp; &amp;nbsp; &amp;nbsp; &amp;nbsp; &amp;nbsp; &amp;nbsp;&lt;/div&gt;&lt;div&gt;&amp;nbsp; &amp;nbsp; &amp;nbsp; &amp;nbsp; &amp;nbsp; redirectPort=&quot;8443&quot;&amp;nbsp; &amp;nbsp; &amp;nbsp; &amp;nbsp; &amp;nbsp; &amp;nbsp; &amp;nbsp; &amp;nbsp;&lt;/div&gt;&lt;div&gt;&amp;nbsp; &amp;nbsp; &amp;nbsp; &amp;nbsp; &amp;nbsp; maxParameterCount=&quot;1000&quot;&lt;/div&gt;&lt;div&gt;&amp;nbsp; &amp;nbsp; &amp;nbsp; &amp;nbsp; &amp;nbsp; /&amp;gt;&lt;/div&gt;" style="rounded=1;whiteSpace=wrap;html=1;fillColor=#d5e8d4;strokeColor=#82b366;fontStyle=0;align=left;spacingLeft=20;" vertex="1" parent="h2VIEQUBgTQc3Tr8gH1n-123">
          <mxGeometry x="1387.5" y="262.5" width="300" height="105" as="geometry" />
        </mxCell>
        <mxCell id="h2VIEQUBgTQc3Tr8gH1n-117" style="edgeStyle=orthogonalEdgeStyle;curved=0;rounded=1;orthogonalLoop=1;jettySize=auto;html=1;exitX=0.5;exitY=1;exitDx=0;exitDy=0;entryX=0.5;entryY=0;entryDx=0;entryDy=0;strokeColor=default;align=center;verticalAlign=middle;fontFamily=Helvetica;fontSize=11;fontColor=default;labelBackgroundColor=default;endArrow=none;endFill=0;" edge="1" parent="h2VIEQUBgTQc3Tr8gH1n-123" source="h2VIEQUBgTQc3Tr8gH1n-109" target="h2VIEQUBgTQc3Tr8gH1n-111">
          <mxGeometry relative="1" as="geometry" />
        </mxCell>
        <mxCell id="h2VIEQUBgTQc3Tr8gH1n-118" style="edgeStyle=orthogonalEdgeStyle;curved=0;rounded=1;orthogonalLoop=1;jettySize=auto;html=1;exitX=0.5;exitY=1;exitDx=0;exitDy=0;entryX=0.5;entryY=0;entryDx=0;entryDy=0;strokeColor=default;align=center;verticalAlign=middle;fontFamily=Helvetica;fontSize=11;fontColor=default;labelBackgroundColor=default;endArrow=none;endFill=0;" edge="1" parent="h2VIEQUBgTQc3Tr8gH1n-123" source="h2VIEQUBgTQc3Tr8gH1n-109" target="h2VIEQUBgTQc3Tr8gH1n-114">
          <mxGeometry relative="1" as="geometry" />
        </mxCell>
        <mxCell id="h2VIEQUBgTQc3Tr8gH1n-109" value="默认主页配置" style="rounded=1;whiteSpace=wrap;html=1;fillColor=#d5e8d4;strokeColor=#82b366;fontStyle=1" vertex="1" parent="h2VIEQUBgTQc3Tr8gH1n-123">
          <mxGeometry x="1910" y="90" width="120" height="50" as="geometry" />
        </mxCell>
        <mxCell id="h2VIEQUBgTQc3Tr8gH1n-110" value="单独项目目录/WEB-INF/web.xml" style="rounded=1;whiteSpace=wrap;html=1;fillColor=#d5e8d4;strokeColor=#82b366;fontStyle=0" vertex="1" parent="h2VIEQUBgTQc3Tr8gH1n-123">
          <mxGeometry x="1720" y="290" width="200" height="50" as="geometry" />
        </mxCell>
        <mxCell id="h2VIEQUBgTQc3Tr8gH1n-113" style="edgeStyle=orthogonalEdgeStyle;curved=0;rounded=1;orthogonalLoop=1;jettySize=auto;html=1;exitX=0.5;exitY=1;exitDx=0;exitDy=0;entryX=0.5;entryY=0;entryDx=0;entryDy=0;strokeColor=default;align=center;verticalAlign=middle;fontFamily=Helvetica;fontSize=11;fontColor=default;labelBackgroundColor=default;endArrow=none;endFill=0;" edge="1" parent="h2VIEQUBgTQc3Tr8gH1n-123" source="h2VIEQUBgTQc3Tr8gH1n-111" target="h2VIEQUBgTQc3Tr8gH1n-110">
          <mxGeometry relative="1" as="geometry" />
        </mxCell>
        <mxCell id="h2VIEQUBgTQc3Tr8gH1n-111" value="配置文件为位置" style="rounded=1;whiteSpace=wrap;html=1;fillColor=#d5e8d4;strokeColor=#82b366;fontStyle=1" vertex="1" parent="h2VIEQUBgTQc3Tr8gH1n-123">
          <mxGeometry x="1760" y="180" width="120" height="50" as="geometry" />
        </mxCell>
        <mxCell id="h2VIEQUBgTQc3Tr8gH1n-116" style="edgeStyle=orthogonalEdgeStyle;curved=0;rounded=1;orthogonalLoop=1;jettySize=auto;html=1;exitX=0.5;exitY=1;exitDx=0;exitDy=0;entryX=0.5;entryY=0;entryDx=0;entryDy=0;strokeColor=default;align=center;verticalAlign=middle;fontFamily=Helvetica;fontSize=11;fontColor=default;labelBackgroundColor=default;endArrow=none;endFill=0;" edge="1" parent="h2VIEQUBgTQc3Tr8gH1n-123" source="h2VIEQUBgTQc3Tr8gH1n-114" target="h2VIEQUBgTQc3Tr8gH1n-115">
          <mxGeometry relative="1" as="geometry" />
        </mxCell>
        <mxCell id="h2VIEQUBgTQc3Tr8gH1n-114" value="配置格式" style="rounded=1;whiteSpace=wrap;html=1;fillColor=#d5e8d4;strokeColor=#82b366;fontStyle=1" vertex="1" parent="h2VIEQUBgTQc3Tr8gH1n-123">
          <mxGeometry x="2055" y="180" width="120" height="50" as="geometry" />
        </mxCell>
        <mxCell id="h2VIEQUBgTQc3Tr8gH1n-115" value="&lt;div&gt;&amp;lt;?xml version=&quot;1.0&quot; encoding=&quot;UTF-8&quot;?&amp;gt;&lt;/div&gt;&lt;div&gt;&amp;lt;web-app xmlns=&quot;http://xmlns.jcp.org/xml/ns/javaee&quot; xmlns:xsi=&quot;http://www.w3.org/2001/XMLSchema-instance&quot; xsi:schemaLocation=&quot;http://xmlns.jcp.org/xml/ns/javaee http://xmlns.jcp.org/xml/ns/javaee/web-app_4_0.xsd&quot; version=&quot;4.0&quot; metadata-complete=&quot;true&quot;&amp;gt;&lt;/div&gt;&lt;div&gt;&lt;br&gt;&lt;/div&gt;&lt;div&gt;&amp;lt;welcome-file-list&amp;gt;&lt;/div&gt;&lt;div&gt;&amp;nbsp; &amp;nbsp; &amp;lt;welcome-file&amp;gt;index.txt&amp;lt;/welcome-file&amp;gt;&lt;/div&gt;&lt;div&gt;&amp;nbsp; &amp;nbsp; &amp;lt;welcome-file&amp;gt;index.html&amp;lt;/welcome-file&amp;gt;&lt;/div&gt;&lt;div&gt;&amp;nbsp; &amp;nbsp; &amp;lt;welcome-file&amp;gt;index.htm&amp;lt;/welcome-file&amp;gt;&lt;/div&gt;&lt;div&gt;&amp;nbsp; &amp;nbsp; &amp;lt;welcome-file&amp;gt;index.jsp&amp;lt;/welcome-file&amp;gt;&lt;/div&gt;&lt;div&gt;&amp;lt;/welcome-file-list&amp;gt;&lt;/div&gt;" style="rounded=1;whiteSpace=wrap;html=1;fillColor=#d5e8d4;strokeColor=#82b366;fontStyle=0;align=left;spacingLeft=20;" vertex="1" parent="h2VIEQUBgTQc3Tr8gH1n-123">
          <mxGeometry x="1940" y="262.5" width="350" height="287.5" as="geometry" />
        </mxCell>
        <mxCell id="h2VIEQUBgTQc3Tr8gH1n-158" value="" style="group" vertex="1" connectable="0" parent="1">
          <mxGeometry x="-413" y="2040" width="2380" height="360" as="geometry" />
        </mxCell>
        <mxCell id="h2VIEQUBgTQc3Tr8gH1n-154" style="edgeStyle=orthogonalEdgeStyle;curved=0;rounded=1;orthogonalLoop=1;jettySize=auto;html=1;exitX=0.5;exitY=1;exitDx=0;exitDy=0;entryX=0.5;entryY=0;entryDx=0;entryDy=0;strokeColor=default;align=center;verticalAlign=middle;fontFamily=Helvetica;fontSize=11;fontColor=default;labelBackgroundColor=default;endArrow=none;endFill=0;" edge="1" parent="h2VIEQUBgTQc3Tr8gH1n-158" source="h2VIEQUBgTQc3Tr8gH1n-122" target="h2VIEQUBgTQc3Tr8gH1n-124">
          <mxGeometry relative="1" as="geometry" />
        </mxCell>
        <mxCell id="h2VIEQUBgTQc3Tr8gH1n-155" style="edgeStyle=orthogonalEdgeStyle;curved=0;rounded=1;orthogonalLoop=1;jettySize=auto;html=1;exitX=0.5;exitY=1;exitDx=0;exitDy=0;entryX=0.5;entryY=0;entryDx=0;entryDy=0;strokeColor=default;align=center;verticalAlign=middle;fontFamily=Helvetica;fontSize=11;fontColor=default;labelBackgroundColor=default;endArrow=none;endFill=0;" edge="1" parent="h2VIEQUBgTQc3Tr8gH1n-158" source="h2VIEQUBgTQc3Tr8gH1n-122" target="h2VIEQUBgTQc3Tr8gH1n-148">
          <mxGeometry relative="1" as="geometry" />
        </mxCell>
        <mxCell id="h2VIEQUBgTQc3Tr8gH1n-157" style="edgeStyle=orthogonalEdgeStyle;curved=0;rounded=1;orthogonalLoop=1;jettySize=auto;html=1;exitX=0.5;exitY=1;exitDx=0;exitDy=0;entryX=0.5;entryY=0;entryDx=0;entryDy=0;strokeColor=default;align=center;verticalAlign=middle;fontFamily=Helvetica;fontSize=11;fontColor=default;labelBackgroundColor=default;endArrow=none;endFill=0;" edge="1" parent="h2VIEQUBgTQc3Tr8gH1n-158" source="h2VIEQUBgTQc3Tr8gH1n-122" target="h2VIEQUBgTQc3Tr8gH1n-151">
          <mxGeometry relative="1" as="geometry" />
        </mxCell>
        <mxCell id="h2VIEQUBgTQc3Tr8gH1n-122" value="Tomcat应用部署" style="rounded=1;whiteSpace=wrap;html=1;fillColor=#a20025;fontColor=#ffffff;strokeColor=#6F0000;fontStyle=1" vertex="1" parent="h2VIEQUBgTQc3Tr8gH1n-158">
          <mxGeometry x="1180" width="120" height="50" as="geometry" />
        </mxCell>
        <mxCell id="h2VIEQUBgTQc3Tr8gH1n-142" style="edgeStyle=orthogonalEdgeStyle;curved=0;rounded=1;orthogonalLoop=1;jettySize=auto;html=1;exitX=0.5;exitY=1;exitDx=0;exitDy=0;entryX=0.5;entryY=0;entryDx=0;entryDy=0;strokeColor=default;align=center;verticalAlign=middle;fontFamily=Helvetica;fontSize=11;fontColor=default;labelBackgroundColor=default;endArrow=none;endFill=0;" edge="1" parent="h2VIEQUBgTQc3Tr8gH1n-158" source="h2VIEQUBgTQc3Tr8gH1n-124" target="h2VIEQUBgTQc3Tr8gH1n-128">
          <mxGeometry relative="1" as="geometry" />
        </mxCell>
        <mxCell id="h2VIEQUBgTQc3Tr8gH1n-144" style="edgeStyle=orthogonalEdgeStyle;curved=0;rounded=1;orthogonalLoop=1;jettySize=auto;html=1;exitX=0.5;exitY=1;exitDx=0;exitDy=0;entryX=0.5;entryY=0;entryDx=0;entryDy=0;strokeColor=default;align=center;verticalAlign=middle;fontFamily=Helvetica;fontSize=11;fontColor=default;labelBackgroundColor=default;endArrow=none;endFill=0;" edge="1" parent="h2VIEQUBgTQc3Tr8gH1n-158" source="h2VIEQUBgTQc3Tr8gH1n-124" target="h2VIEQUBgTQc3Tr8gH1n-129">
          <mxGeometry relative="1" as="geometry" />
        </mxCell>
        <mxCell id="h2VIEQUBgTQc3Tr8gH1n-145" style="edgeStyle=orthogonalEdgeStyle;curved=0;rounded=1;orthogonalLoop=1;jettySize=auto;html=1;exitX=0.5;exitY=1;exitDx=0;exitDy=0;entryX=0.5;entryY=0;entryDx=0;entryDy=0;strokeColor=default;align=center;verticalAlign=middle;fontFamily=Helvetica;fontSize=11;fontColor=default;labelBackgroundColor=default;endArrow=none;endFill=0;" edge="1" parent="h2VIEQUBgTQc3Tr8gH1n-158" source="h2VIEQUBgTQc3Tr8gH1n-124" target="h2VIEQUBgTQc3Tr8gH1n-130">
          <mxGeometry relative="1" as="geometry" />
        </mxCell>
        <mxCell id="h2VIEQUBgTQc3Tr8gH1n-146" style="edgeStyle=orthogonalEdgeStyle;curved=0;rounded=1;orthogonalLoop=1;jettySize=auto;html=1;exitX=0.5;exitY=1;exitDx=0;exitDy=0;entryX=0.5;entryY=0;entryDx=0;entryDy=0;strokeColor=default;align=center;verticalAlign=middle;fontFamily=Helvetica;fontSize=11;fontColor=default;labelBackgroundColor=default;endArrow=none;endFill=0;" edge="1" parent="h2VIEQUBgTQc3Tr8gH1n-158" source="h2VIEQUBgTQc3Tr8gH1n-124" target="h2VIEQUBgTQc3Tr8gH1n-127">
          <mxGeometry relative="1" as="geometry" />
        </mxCell>
        <mxCell id="h2VIEQUBgTQc3Tr8gH1n-147" style="edgeStyle=orthogonalEdgeStyle;curved=0;rounded=1;orthogonalLoop=1;jettySize=auto;html=1;exitX=0.5;exitY=1;exitDx=0;exitDy=0;entryX=0.5;entryY=0;entryDx=0;entryDy=0;strokeColor=default;align=center;verticalAlign=middle;fontFamily=Helvetica;fontSize=11;fontColor=default;labelBackgroundColor=default;endArrow=none;endFill=0;" edge="1" parent="h2VIEQUBgTQc3Tr8gH1n-158" source="h2VIEQUBgTQc3Tr8gH1n-124" target="h2VIEQUBgTQc3Tr8gH1n-126">
          <mxGeometry relative="1" as="geometry" />
        </mxCell>
        <mxCell id="h2VIEQUBgTQc3Tr8gH1n-124" value="以文件或war包直接部署" style="rounded=1;whiteSpace=wrap;html=1;fillColor=#fff2cc;strokeColor=#d6b656;fontStyle=1" vertex="1" parent="h2VIEQUBgTQc3Tr8gH1n-158">
          <mxGeometry x="540" y="110" width="180" height="50" as="geometry" />
        </mxCell>
        <mxCell id="h2VIEQUBgTQc3Tr8gH1n-132" style="edgeStyle=orthogonalEdgeStyle;curved=0;rounded=1;orthogonalLoop=1;jettySize=auto;html=1;exitX=0.5;exitY=1;exitDx=0;exitDy=0;entryX=0.5;entryY=0;entryDx=0;entryDy=0;strokeColor=default;align=center;verticalAlign=middle;fontFamily=Helvetica;fontSize=11;fontColor=default;labelBackgroundColor=default;endArrow=none;endFill=0;" edge="1" parent="h2VIEQUBgTQc3Tr8gH1n-158" source="h2VIEQUBgTQc3Tr8gH1n-126" target="h2VIEQUBgTQc3Tr8gH1n-131">
          <mxGeometry relative="1" as="geometry" />
        </mxCell>
        <mxCell id="h2VIEQUBgTQc3Tr8gH1n-126" value="创建文件目录&amp;nbsp;" style="rounded=1;whiteSpace=wrap;html=1;fillColor=#fff2cc;strokeColor=#d6b656;fontStyle=1" vertex="1" parent="h2VIEQUBgTQc3Tr8gH1n-158">
          <mxGeometry x="35" y="220" width="120" height="50" as="geometry" />
        </mxCell>
        <mxCell id="h2VIEQUBgTQc3Tr8gH1n-134" style="edgeStyle=orthogonalEdgeStyle;curved=0;rounded=1;orthogonalLoop=1;jettySize=auto;html=1;exitX=0.5;exitY=1;exitDx=0;exitDy=0;entryX=0.5;entryY=0;entryDx=0;entryDy=0;strokeColor=default;align=center;verticalAlign=middle;fontFamily=Helvetica;fontSize=11;fontColor=default;labelBackgroundColor=default;endArrow=none;endFill=0;" edge="1" parent="h2VIEQUBgTQc3Tr8gH1n-158" source="h2VIEQUBgTQc3Tr8gH1n-127" target="h2VIEQUBgTQc3Tr8gH1n-133">
          <mxGeometry relative="1" as="geometry" />
        </mxCell>
        <mxCell id="h2VIEQUBgTQc3Tr8gH1n-127" value="向目录中添加项目文件" style="rounded=1;whiteSpace=wrap;html=1;fillColor=#fff2cc;strokeColor=#d6b656;fontStyle=1" vertex="1" parent="h2VIEQUBgTQc3Tr8gH1n-158">
          <mxGeometry x="275" y="220" width="150" height="50" as="geometry" />
        </mxCell>
        <mxCell id="h2VIEQUBgTQc3Tr8gH1n-136" style="edgeStyle=orthogonalEdgeStyle;curved=0;rounded=1;orthogonalLoop=1;jettySize=auto;html=1;exitX=0.5;exitY=1;exitDx=0;exitDy=0;entryX=0.5;entryY=0;entryDx=0;entryDy=0;strokeColor=default;align=center;verticalAlign=middle;fontFamily=Helvetica;fontSize=11;fontColor=default;labelBackgroundColor=default;endArrow=none;endFill=0;" edge="1" parent="h2VIEQUBgTQc3Tr8gH1n-158" source="h2VIEQUBgTQc3Tr8gH1n-128" target="h2VIEQUBgTQc3Tr8gH1n-135">
          <mxGeometry relative="1" as="geometry" />
        </mxCell>
        <mxCell id="h2VIEQUBgTQc3Tr8gH1n-128" value="修改权限" style="rounded=1;whiteSpace=wrap;html=1;fillColor=#fff2cc;strokeColor=#d6b656;fontStyle=1" vertex="1" parent="h2VIEQUBgTQc3Tr8gH1n-158">
          <mxGeometry x="580" y="220" width="100" height="50" as="geometry" />
        </mxCell>
        <mxCell id="h2VIEQUBgTQc3Tr8gH1n-138" style="edgeStyle=orthogonalEdgeStyle;curved=0;rounded=1;orthogonalLoop=1;jettySize=auto;html=1;exitX=0.5;exitY=1;exitDx=0;exitDy=0;entryX=0.5;entryY=0;entryDx=0;entryDy=0;strokeColor=default;align=center;verticalAlign=middle;fontFamily=Helvetica;fontSize=11;fontColor=default;labelBackgroundColor=default;endArrow=none;endFill=0;" edge="1" parent="h2VIEQUBgTQc3Tr8gH1n-158" source="h2VIEQUBgTQc3Tr8gH1n-129" target="h2VIEQUBgTQc3Tr8gH1n-137">
          <mxGeometry relative="1" as="geometry" />
        </mxCell>
        <mxCell id="h2VIEQUBgTQc3Tr8gH1n-129" value="新增域名配置&lt;div&gt;conf/server.xml&lt;/div&gt;" style="rounded=1;whiteSpace=wrap;html=1;fillColor=#fff2cc;strokeColor=#d6b656;fontStyle=1" vertex="1" parent="h2VIEQUBgTQc3Tr8gH1n-158">
          <mxGeometry x="1005" y="220" width="100" height="50" as="geometry" />
        </mxCell>
        <mxCell id="h2VIEQUBgTQc3Tr8gH1n-141" style="edgeStyle=orthogonalEdgeStyle;curved=0;rounded=1;orthogonalLoop=1;jettySize=auto;html=1;exitX=0.5;exitY=1;exitDx=0;exitDy=0;entryX=0.5;entryY=0;entryDx=0;entryDy=0;strokeColor=default;align=center;verticalAlign=middle;fontFamily=Helvetica;fontSize=11;fontColor=default;labelBackgroundColor=default;endArrow=none;endFill=0;" edge="1" parent="h2VIEQUBgTQc3Tr8gH1n-158" source="h2VIEQUBgTQc3Tr8gH1n-130" target="h2VIEQUBgTQc3Tr8gH1n-140">
          <mxGeometry relative="1" as="geometry" />
        </mxCell>
        <mxCell id="h2VIEQUBgTQc3Tr8gH1n-130" value="重启服务" style="rounded=1;whiteSpace=wrap;html=1;fillColor=#fff2cc;strokeColor=#d6b656;fontStyle=1" vertex="1" parent="h2VIEQUBgTQc3Tr8gH1n-158">
          <mxGeometry x="1400" y="220" width="100" height="50" as="geometry" />
        </mxCell>
        <mxCell id="h2VIEQUBgTQc3Tr8gH1n-131" value="mkdir -pv /data/webapps/ROOT" style="rounded=1;whiteSpace=wrap;html=1;fillColor=#fff2cc;strokeColor=#d6b656;fontStyle=0" vertex="1" parent="h2VIEQUBgTQc3Tr8gH1n-158">
          <mxGeometry y="310" width="190" height="50" as="geometry" />
        </mxCell>
        <mxCell id="h2VIEQUBgTQc3Tr8gH1n-133" value="cp index.{html,jsp} /data/webapps/ROOT/" style="rounded=1;whiteSpace=wrap;html=1;fillColor=#fff2cc;strokeColor=#d6b656;fontStyle=0" vertex="1" parent="h2VIEQUBgTQc3Tr8gH1n-158">
          <mxGeometry x="220" y="310" width="260" height="50" as="geometry" />
        </mxCell>
        <mxCell id="h2VIEQUBgTQc3Tr8gH1n-135" value="chown -R tomcat.tomcat /data/webapps/" style="rounded=1;whiteSpace=wrap;html=1;fillColor=#fff2cc;strokeColor=#d6b656;fontStyle=0" vertex="1" parent="h2VIEQUBgTQc3Tr8gH1n-158">
          <mxGeometry x="500" y="310" width="260" height="50" as="geometry" />
        </mxCell>
        <mxCell id="h2VIEQUBgTQc3Tr8gH1n-137" value="&lt;div&gt;&amp;lt;Host name=&quot;java.fenge.org&quot; appBase=&quot;/data/webapps&quot; unpackWARs=&quot;true&quot; utoDeploy=&quot;true&quot;&amp;gt;&lt;/div&gt;&lt;div&gt;&amp;lt;/Host&amp;gt;&lt;/div&gt;" style="rounded=1;whiteSpace=wrap;html=1;fillColor=#fff2cc;strokeColor=#d6b656;fontStyle=0;align=left;spacingLeft=20;" vertex="1" parent="h2VIEQUBgTQc3Tr8gH1n-158">
          <mxGeometry x="780" y="310" width="550" height="50" as="geometry" />
        </mxCell>
        <mxCell id="h2VIEQUBgTQc3Tr8gH1n-140" value="systemctl restart tomcat.service" style="rounded=1;whiteSpace=wrap;html=1;fillColor=#fff2cc;strokeColor=#d6b656;fontStyle=0" vertex="1" parent="h2VIEQUBgTQc3Tr8gH1n-158">
          <mxGeometry x="1350" y="310" width="200" height="50" as="geometry" />
        </mxCell>
        <mxCell id="h2VIEQUBgTQc3Tr8gH1n-150" style="edgeStyle=orthogonalEdgeStyle;curved=0;rounded=1;orthogonalLoop=1;jettySize=auto;html=1;exitX=0.5;exitY=1;exitDx=0;exitDy=0;entryX=0.5;entryY=0;entryDx=0;entryDy=0;strokeColor=default;align=center;verticalAlign=middle;fontFamily=Helvetica;fontSize=11;fontColor=default;labelBackgroundColor=default;endArrow=none;endFill=0;" edge="1" parent="h2VIEQUBgTQc3Tr8gH1n-158" source="h2VIEQUBgTQc3Tr8gH1n-148" target="h2VIEQUBgTQc3Tr8gH1n-149">
          <mxGeometry relative="1" as="geometry" />
        </mxCell>
        <mxCell id="h2VIEQUBgTQc3Tr8gH1n-148" value="编辑/usr/local/tomcat/conf/server.xml配置文件，添加Context标签" style="rounded=1;whiteSpace=wrap;html=1;fillColor=#fff2cc;strokeColor=#d6b656;fontStyle=1" vertex="1" parent="h2VIEQUBgTQc3Tr8gH1n-158">
          <mxGeometry x="1570" y="110" width="400" height="50" as="geometry" />
        </mxCell>
        <mxCell id="h2VIEQUBgTQc3Tr8gH1n-149" value="在tomcat的server.xml配置文件中的Host节点下&lt;div&gt;增加Context子节点，配置域名，文件路径&lt;/div&gt;" style="rounded=1;whiteSpace=wrap;html=1;fillColor=#fff2cc;strokeColor=#d6b656;fontStyle=1" vertex="1" parent="h2VIEQUBgTQc3Tr8gH1n-158">
          <mxGeometry x="1610" y="220" width="320" height="50" as="geometry" />
        </mxCell>
        <mxCell id="h2VIEQUBgTQc3Tr8gH1n-153" style="edgeStyle=orthogonalEdgeStyle;curved=0;rounded=1;orthogonalLoop=1;jettySize=auto;html=1;exitX=0.5;exitY=1;exitDx=0;exitDy=0;entryX=0.5;entryY=0;entryDx=0;entryDy=0;strokeColor=default;align=center;verticalAlign=middle;fontFamily=Helvetica;fontSize=11;fontColor=default;labelBackgroundColor=default;endArrow=none;endFill=0;" edge="1" parent="h2VIEQUBgTQc3Tr8gH1n-158" source="h2VIEQUBgTQc3Tr8gH1n-151" target="h2VIEQUBgTQc3Tr8gH1n-152">
          <mxGeometry relative="1" as="geometry" />
        </mxCell>
        <mxCell id="h2VIEQUBgTQc3Tr8gH1n-151" value="在/usr/local/tomcat/conf/[Engine]/[Host]目录下创建独立配置" style="rounded=1;whiteSpace=wrap;html=1;fillColor=#fff2cc;strokeColor=#d6b656;fontStyle=1" vertex="1" parent="h2VIEQUBgTQc3Tr8gH1n-158">
          <mxGeometry x="2010" y="110" width="370" height="50" as="geometry" />
        </mxCell>
        <mxCell id="h2VIEQUBgTQc3Tr8gH1n-152" value="在该目录下新建xml文件，文件名为应用名，&lt;div&gt;然后在配置文件中添加Context子节点，配置域名，文件路径等&lt;/div&gt;" style="rounded=1;whiteSpace=wrap;html=1;fillColor=#fff2cc;strokeColor=#d6b656;fontStyle=1" vertex="1" parent="h2VIEQUBgTQc3Tr8gH1n-158">
          <mxGeometry x="2010" y="220" width="370" height="50" as="geometry" />
        </mxCell>
        <mxCell id="h2VIEQUBgTQc3Tr8gH1n-182" value="" style="group" vertex="1" connectable="0" parent="1">
          <mxGeometry x="-290" y="2550" width="2180" height="810" as="geometry" />
        </mxCell>
        <mxCell id="h2VIEQUBgTQc3Tr8gH1n-177" style="edgeStyle=orthogonalEdgeStyle;curved=0;rounded=1;orthogonalLoop=1;jettySize=auto;html=1;exitX=0.5;exitY=1;exitDx=0;exitDy=0;entryX=0.5;entryY=0;entryDx=0;entryDy=0;strokeColor=default;align=center;verticalAlign=middle;fontFamily=Helvetica;fontSize=11;fontColor=default;labelBackgroundColor=default;endArrow=none;endFill=0;" edge="1" parent="h2VIEQUBgTQc3Tr8gH1n-182" source="h2VIEQUBgTQc3Tr8gH1n-159" target="h2VIEQUBgTQc3Tr8gH1n-167">
          <mxGeometry relative="1" as="geometry" />
        </mxCell>
        <mxCell id="h2VIEQUBgTQc3Tr8gH1n-178" style="edgeStyle=orthogonalEdgeStyle;curved=0;rounded=1;orthogonalLoop=1;jettySize=auto;html=1;exitX=0.5;exitY=1;exitDx=0;exitDy=0;entryX=0.5;entryY=0;entryDx=0;entryDy=0;strokeColor=default;align=center;verticalAlign=middle;fontFamily=Helvetica;fontSize=11;fontColor=default;labelBackgroundColor=default;endArrow=none;endFill=0;" edge="1" parent="h2VIEQUBgTQc3Tr8gH1n-182" source="h2VIEQUBgTQc3Tr8gH1n-159" target="h2VIEQUBgTQc3Tr8gH1n-164">
          <mxGeometry relative="1" as="geometry" />
        </mxCell>
        <mxCell id="h2VIEQUBgTQc3Tr8gH1n-179" style="edgeStyle=orthogonalEdgeStyle;curved=0;rounded=1;orthogonalLoop=1;jettySize=auto;html=1;exitX=0.5;exitY=1;exitDx=0;exitDy=0;entryX=0.5;entryY=0;entryDx=0;entryDy=0;strokeColor=default;align=center;verticalAlign=middle;fontFamily=Helvetica;fontSize=11;fontColor=default;labelBackgroundColor=default;endArrow=none;endFill=0;" edge="1" parent="h2VIEQUBgTQc3Tr8gH1n-182" source="h2VIEQUBgTQc3Tr8gH1n-159" target="h2VIEQUBgTQc3Tr8gH1n-161">
          <mxGeometry relative="1" as="geometry" />
        </mxCell>
        <mxCell id="h2VIEQUBgTQc3Tr8gH1n-180" style="edgeStyle=orthogonalEdgeStyle;curved=0;rounded=1;orthogonalLoop=1;jettySize=auto;html=1;exitX=0.5;exitY=1;exitDx=0;exitDy=0;entryX=0.5;entryY=0;entryDx=0;entryDy=0;strokeColor=default;align=center;verticalAlign=middle;fontFamily=Helvetica;fontSize=11;fontColor=default;labelBackgroundColor=default;endArrow=none;endFill=0;" edge="1" parent="h2VIEQUBgTQc3Tr8gH1n-182" source="h2VIEQUBgTQc3Tr8gH1n-159" target="h2VIEQUBgTQc3Tr8gH1n-170">
          <mxGeometry relative="1" as="geometry" />
        </mxCell>
        <mxCell id="h2VIEQUBgTQc3Tr8gH1n-181" style="edgeStyle=orthogonalEdgeStyle;curved=0;rounded=1;orthogonalLoop=1;jettySize=auto;html=1;exitX=0.5;exitY=1;exitDx=0;exitDy=0;entryX=0.5;entryY=0;entryDx=0;entryDy=0;strokeColor=default;align=center;verticalAlign=middle;fontFamily=Helvetica;fontSize=11;fontColor=default;labelBackgroundColor=default;endArrow=none;endFill=0;" edge="1" parent="h2VIEQUBgTQc3Tr8gH1n-182" source="h2VIEQUBgTQc3Tr8gH1n-159" target="h2VIEQUBgTQc3Tr8gH1n-173">
          <mxGeometry relative="1" as="geometry" />
        </mxCell>
        <mxCell id="h2VIEQUBgTQc3Tr8gH1n-159" value="反向代理中部署Tomcat" style="rounded=1;whiteSpace=wrap;html=1;fillColor=#6a00ff;fontColor=#ffffff;strokeColor=#3700CC;fontStyle=1" vertex="1" parent="h2VIEQUBgTQc3Tr8gH1n-182">
          <mxGeometry x="1010" width="180" height="50" as="geometry" />
        </mxCell>
        <mxCell id="h2VIEQUBgTQc3Tr8gH1n-163" style="edgeStyle=orthogonalEdgeStyle;curved=0;rounded=1;orthogonalLoop=1;jettySize=auto;html=1;exitX=0.5;exitY=1;exitDx=0;exitDy=0;entryX=0.5;entryY=0;entryDx=0;entryDy=0;strokeColor=default;align=center;verticalAlign=middle;fontFamily=Helvetica;fontSize=11;fontColor=default;labelBackgroundColor=default;endArrow=none;endFill=0;" edge="1" parent="h2VIEQUBgTQc3Tr8gH1n-182" source="h2VIEQUBgTQc3Tr8gH1n-161" target="h2VIEQUBgTQc3Tr8gH1n-162">
          <mxGeometry relative="1" as="geometry" />
        </mxCell>
        <mxCell id="h2VIEQUBgTQc3Tr8gH1n-161" value="Nginx单机反向代理实现" style="rounded=1;whiteSpace=wrap;html=1;fillColor=#e1d5e7;strokeColor=#9673a6;fontStyle=1" vertex="1" parent="h2VIEQUBgTQc3Tr8gH1n-182">
          <mxGeometry x="80" y="140" width="180" height="50" as="geometry" />
        </mxCell>
        <mxCell id="h2VIEQUBgTQc3Tr8gH1n-162" value="&lt;div&gt;&lt;div&gt;&lt;b&gt;# tomcat配置&lt;/b&gt;&lt;/div&gt;&lt;div&gt;cat conf/server.xml&lt;/div&gt;&lt;div&gt;&lt;br&gt;&lt;/div&gt;&lt;div&gt;&amp;lt;Host name=&quot;java.fenge.org&quot; appBase=&quot;/data/webapps&quot; unpackWARs=&quot;true&quot; utoDeploy=&quot;true&quot;&amp;gt;&lt;/div&gt;&lt;div&gt;&amp;lt;/Host&amp;gt;&lt;/div&gt;&lt;div&gt;&lt;br&gt;&lt;/div&gt;&lt;div&gt;systemctl restart tomcat.service&lt;/div&gt;&lt;div&gt;&lt;br&gt;&lt;/div&gt;&lt;div&gt;&lt;b&gt;# nginx配置&lt;/b&gt;&lt;/div&gt;&lt;div&gt;cat /etc/nginx/conf.d/java.fenge.org.conf&lt;/div&gt;&lt;div&gt;&lt;br&gt;&lt;/div&gt;&lt;div&gt;server {&lt;/div&gt;&lt;div&gt;&amp;nbsp; &amp;nbsp; listen 80;&lt;/div&gt;&lt;div&gt;&amp;nbsp; &amp;nbsp; server_name java.fenge.org;&lt;/div&gt;&lt;div&gt;&lt;br&gt;&lt;/div&gt;&lt;div&gt;&amp;nbsp; &amp;nbsp; location / {&lt;/div&gt;&lt;div&gt;&amp;nbsp; &amp;nbsp; &amp;nbsp; &amp;nbsp; proxy_pass http://10.0.0.150:8080;&lt;/div&gt;&lt;div&gt;&amp;nbsp; &amp;nbsp; &amp;nbsp; &amp;nbsp; proxy_set_header host $http_host;&lt;/div&gt;&lt;div&gt;&amp;nbsp; &amp;nbsp; }&lt;/div&gt;&lt;div&gt;}&lt;/div&gt;&lt;div&gt;&lt;br&gt;&lt;/div&gt;&lt;div&gt;&lt;b&gt;# 在nginx中配置动静分离&lt;/b&gt;&lt;/div&gt;&lt;div&gt;&lt;br&gt;&lt;/div&gt;&lt;div&gt;server {&lt;/div&gt;&lt;div&gt;&amp;nbsp; &amp;nbsp; &amp;nbsp; &amp;nbsp; listen 80;&lt;/div&gt;&lt;div&gt;&amp;nbsp; &amp;nbsp; &amp;nbsp; &amp;nbsp; server_name java.fenge.org;&lt;/div&gt;&lt;div&gt;&amp;nbsp; &amp;nbsp; &amp;nbsp; &amp;nbsp; root /data/nginx/html/jhtml;&lt;/div&gt;&lt;div&gt;&lt;br&gt;&lt;/div&gt;&lt;div&gt;&lt;br&gt;&lt;/div&gt;&lt;div&gt;&amp;nbsp; &amp;nbsp; &amp;nbsp; &amp;nbsp; location ~* \.jsp$ {&lt;/div&gt;&lt;div&gt;&amp;nbsp; &amp;nbsp; &amp;nbsp; &amp;nbsp; &amp;nbsp; &amp;nbsp; &amp;nbsp; &amp;nbsp; proxy_pass http://10.0.0.150:8080;&lt;/div&gt;&lt;div&gt;&amp;nbsp; &amp;nbsp; &amp;nbsp; &amp;nbsp; &amp;nbsp; &amp;nbsp; &amp;nbsp; &amp;nbsp; proxy_set_header host $http_host;&lt;/div&gt;&lt;div&gt;&amp;nbsp; &amp;nbsp; &amp;nbsp; &amp;nbsp; }&lt;/div&gt;&lt;div&gt;}&lt;/div&gt;&lt;/div&gt;" style="rounded=1;whiteSpace=wrap;html=1;fillColor=#e1d5e7;strokeColor=#9673a6;fontStyle=0;align=left;spacingLeft=20;" vertex="1" parent="h2VIEQUBgTQc3Tr8gH1n-182">
          <mxGeometry y="240" width="340" height="570" as="geometry" />
        </mxCell>
        <mxCell id="h2VIEQUBgTQc3Tr8gH1n-166" style="edgeStyle=orthogonalEdgeStyle;curved=0;rounded=1;orthogonalLoop=1;jettySize=auto;html=1;exitX=0.5;exitY=1;exitDx=0;exitDy=0;entryX=0.5;entryY=0;entryDx=0;entryDy=0;strokeColor=default;align=center;verticalAlign=middle;fontFamily=Helvetica;fontSize=11;fontColor=default;labelBackgroundColor=default;endArrow=none;endFill=0;" edge="1" parent="h2VIEQUBgTQc3Tr8gH1n-182" source="h2VIEQUBgTQc3Tr8gH1n-164" target="h2VIEQUBgTQc3Tr8gH1n-165">
          <mxGeometry relative="1" as="geometry" />
        </mxCell>
        <mxCell id="h2VIEQUBgTQc3Tr8gH1n-164" value="Nginx代理多台Tomcat实现" style="rounded=1;whiteSpace=wrap;html=1;fillColor=#e1d5e7;strokeColor=#9673a6;fontStyle=1" vertex="1" parent="h2VIEQUBgTQc3Tr8gH1n-182">
          <mxGeometry x="545" y="140" width="190" height="50" as="geometry" />
        </mxCell>
        <mxCell id="h2VIEQUBgTQc3Tr8gH1n-165" value="&lt;div&gt;&lt;span&gt;&lt;b&gt;# tomcat部署，两台配置一样&lt;/b&gt;&lt;/span&gt;&lt;/div&gt;&lt;div&gt;&lt;span&gt;&lt;br&gt;&lt;/span&gt;&lt;/div&gt;&lt;div&gt;&lt;span&gt;&amp;lt;Host name=&quot;java.fenge.org&quot;&amp;nbsp; appBase=&quot;/data/webapps&quot;&amp;nbsp; unpackWARs=&quot;true&quot; autoDeploy=&quot;true&quot;&amp;gt;&lt;/span&gt;&lt;/div&gt;&lt;div&gt;&lt;span&gt;&amp;lt;/Host&amp;gt;&lt;/span&gt;&lt;/div&gt;&lt;div&gt;&lt;span&gt;&lt;br&gt;&lt;/span&gt;&lt;/div&gt;&lt;div&gt;&lt;span&gt;&lt;b&gt;# Nginx 10.0.0.180配置&lt;/b&gt;&lt;/span&gt;&lt;/div&gt;&lt;div&gt;&lt;span&gt;upstream group11 {&lt;/span&gt;&lt;/div&gt;&lt;div&gt;&lt;span&gt;&amp;nbsp; &amp;nbsp; &amp;nbsp; &amp;nbsp; server 10.0.0.151:8080;&lt;/span&gt;&lt;/div&gt;&lt;div&gt;&lt;span&gt;&amp;nbsp; &amp;nbsp; &amp;nbsp; &amp;nbsp; server 10.0.0.150:8080;&lt;/span&gt;&lt;/div&gt;&lt;div&gt;&lt;span&gt;}&lt;/span&gt;&lt;/div&gt;&lt;div&gt;&lt;span&gt;&lt;br&gt;&lt;/span&gt;&lt;/div&gt;&lt;div&gt;&lt;span&gt;server {&lt;/span&gt;&lt;/div&gt;&lt;div&gt;&lt;span&gt;&amp;nbsp; &amp;nbsp; &amp;nbsp; &amp;nbsp; listen 80;&lt;/span&gt;&lt;/div&gt;&lt;div&gt;&lt;span&gt;&amp;nbsp; &amp;nbsp; &amp;nbsp; &amp;nbsp; server_name java.fenge.org;&lt;/span&gt;&lt;/div&gt;&lt;div&gt;&lt;span&gt;&amp;nbsp; &amp;nbsp; &amp;nbsp; &amp;nbsp; root /data/nginx/html/jhtml;&lt;/span&gt;&lt;/div&gt;&lt;div&gt;&lt;span&gt;&lt;br&gt;&lt;/span&gt;&lt;/div&gt;&lt;div&gt;&lt;span&gt;&lt;br&gt;&lt;/span&gt;&lt;/div&gt;&lt;div&gt;&lt;span&gt;&amp;nbsp; &amp;nbsp; &amp;nbsp; &amp;nbsp; location ~* \.jsp$ {&lt;/span&gt;&lt;/div&gt;&lt;div&gt;&lt;span&gt;&amp;nbsp; &amp;nbsp; &amp;nbsp; &amp;nbsp; &amp;nbsp; &amp;nbsp; &amp;nbsp; &amp;nbsp; proxy_pass http://group11;&lt;/span&gt;&lt;/div&gt;&lt;div&gt;&lt;span&gt;&amp;nbsp; &amp;nbsp; &amp;nbsp; &amp;nbsp; &amp;nbsp; &amp;nbsp; &amp;nbsp; &amp;nbsp; proxy_set_header host $http_host;&lt;/span&gt;&lt;/div&gt;&lt;div&gt;&lt;span&gt;&amp;nbsp; &amp;nbsp; &amp;nbsp; &amp;nbsp; }&lt;/span&gt;&lt;/div&gt;&lt;div&gt;&lt;span&gt;}&lt;/span&gt;&lt;/div&gt;" style="rounded=1;whiteSpace=wrap;html=1;fillColor=#e1d5e7;strokeColor=#9673a6;fontStyle=0;align=left;spacingLeft=20;" vertex="1" parent="h2VIEQUBgTQc3Tr8gH1n-182">
          <mxGeometry x="470" y="250" width="340" height="420" as="geometry" />
        </mxCell>
        <mxCell id="h2VIEQUBgTQc3Tr8gH1n-169" style="edgeStyle=orthogonalEdgeStyle;curved=0;rounded=1;orthogonalLoop=1;jettySize=auto;html=1;exitX=0.5;exitY=1;exitDx=0;exitDy=0;entryX=0.5;entryY=0;entryDx=0;entryDy=0;strokeColor=default;align=center;verticalAlign=middle;fontFamily=Helvetica;fontSize=11;fontColor=default;labelBackgroundColor=default;endArrow=none;endFill=0;" edge="1" parent="h2VIEQUBgTQc3Tr8gH1n-182" source="h2VIEQUBgTQc3Tr8gH1n-167" target="h2VIEQUBgTQc3Tr8gH1n-168">
          <mxGeometry relative="1" as="geometry" />
        </mxCell>
        <mxCell id="h2VIEQUBgTQc3Tr8gH1n-167" value="实现会话保持" style="rounded=1;whiteSpace=wrap;html=1;fillColor=#e1d5e7;strokeColor=#9673a6;fontStyle=1" vertex="1" parent="h2VIEQUBgTQc3Tr8gH1n-182">
          <mxGeometry x="1005" y="133" width="190" height="50" as="geometry" />
        </mxCell>
        <UserObject label="&lt;div&gt;&lt;b&gt;# 在Nginx服务器上配置&lt;/b&gt;&lt;/div&gt;&lt;div&gt;&lt;br&gt;&lt;/div&gt;[root@ubuntu ~]# cat /etc/nginx/conf.d/java.m99-magedu.com.conf&amp;nbsp;&lt;br&gt;upstream tomcat {&lt;br&gt;&amp;nbsp; &amp;nbsp; ip_hash;&lt;br&gt;&amp;nbsp; &amp;nbsp; hash $remoute_addr;&amp;nbsp; &amp;nbsp; &amp;nbsp;&lt;br&gt;&amp;nbsp; &amp;nbsp; hash $cookie_JSESSION consistent;&amp;nbsp; &amp;nbsp;&lt;b&gt;# 三选一&lt;/b&gt;&lt;br&gt;&amp;nbsp; &amp;nbsp;&amp;nbsp;&lt;br&gt;&amp;nbsp; &amp;nbsp; server 10.0.0.208:8080;&lt;br&gt;&amp;nbsp; &amp;nbsp; server 10.0.0.210:8080;&amp;nbsp;&lt;br&gt;}" link="[root@ubuntu ~]# cat /etc/nginx/conf.d/java.m99-magedu.com.conf &#xa;upstream tomcat {&#xa;    ip_hash;&#xa;    hash $remoute_addr;     &#xa;    hash $cookie_JSESSION consistent;   # 三选一&#xa;    &#xa;    server 10.0.0.208:8080;&#xa;    server 10.0.0.210:8080;&#xa;}" id="h2VIEQUBgTQc3Tr8gH1n-168">
          <mxCell style="rounded=1;whiteSpace=wrap;html=1;fillColor=#e1d5e7;strokeColor=#9673a6;fontStyle=0;align=left;spacingLeft=20;" vertex="1" parent="h2VIEQUBgTQc3Tr8gH1n-182">
            <mxGeometry x="930" y="243" width="340" height="290" as="geometry" />
          </mxCell>
        </UserObject>
        <mxCell id="h2VIEQUBgTQc3Tr8gH1n-172" style="edgeStyle=orthogonalEdgeStyle;curved=0;rounded=1;orthogonalLoop=1;jettySize=auto;html=1;exitX=0.5;exitY=1;exitDx=0;exitDy=0;entryX=0.5;entryY=0;entryDx=0;entryDy=0;strokeColor=default;align=center;verticalAlign=middle;fontFamily=Helvetica;fontSize=11;fontColor=default;labelBackgroundColor=default;endArrow=none;endFill=0;" edge="1" parent="h2VIEQUBgTQc3Tr8gH1n-182" source="h2VIEQUBgTQc3Tr8gH1n-170" target="h2VIEQUBgTQc3Tr8gH1n-171">
          <mxGeometry relative="1" as="geometry" />
        </mxCell>
        <mxCell id="h2VIEQUBgTQc3Tr8gH1n-170" value="配置https监听转发到后端http" style="rounded=1;whiteSpace=wrap;html=1;fillColor=#e1d5e7;strokeColor=#9673a6;fontStyle=1" vertex="1" parent="h2VIEQUBgTQc3Tr8gH1n-182">
          <mxGeometry x="1450" y="140" width="200" height="50" as="geometry" />
        </mxCell>
        <UserObject label="&lt;div&gt;&lt;span&gt;&lt;b&gt;#先使用easy-rsa生成证书文件&lt;/b&gt;&lt;/span&gt;&lt;/div&gt;&lt;div&gt;&lt;span&gt;&lt;b&gt;# Nginx上的配置&lt;/b&gt;&lt;/span&gt;&lt;/div&gt;&lt;div&gt;&lt;span&gt;upstream group1 {&lt;/span&gt;&lt;/div&gt;&lt;div&gt;&lt;span&gt;&amp;nbsp; &amp;nbsp; &amp;nbsp; &amp;nbsp; server 10.0.0.118:8080;&lt;/span&gt;&lt;/div&gt;&lt;div&gt;&lt;span&gt;&amp;nbsp; &amp;nbsp; &amp;nbsp; &amp;nbsp; server 10.0.0.128:8080;&lt;/span&gt;&lt;/div&gt;&lt;div&gt;&lt;span&gt;}&lt;/span&gt;&lt;/div&gt;&lt;div&gt;&lt;span&gt;&lt;br&gt;&lt;/span&gt;&lt;/div&gt;&lt;div&gt;&lt;span&gt;server {&lt;/span&gt;&lt;/div&gt;&lt;div&gt;&lt;span&gt;&amp;nbsp; &amp;nbsp; &amp;nbsp; &amp;nbsp; server_name java.feng.org;&lt;/span&gt;&lt;/div&gt;&lt;div&gt;&lt;span&gt;&amp;nbsp; &amp;nbsp; &amp;nbsp; &amp;nbsp; root /data/html/java;&lt;/span&gt;&lt;/div&gt;&lt;div&gt;&lt;span&gt;&amp;nbsp; &amp;nbsp; &amp;nbsp; &amp;nbsp; return 302 https://$host$request_uri;&lt;/span&gt;&lt;/div&gt;&lt;div&gt;&lt;span&gt;}&lt;/span&gt;&lt;/div&gt;&lt;div&gt;&lt;span&gt;&lt;br&gt;&lt;/span&gt;&lt;/div&gt;&lt;div&gt;&lt;span&gt;&lt;br&gt;&lt;/span&gt;&lt;/div&gt;&lt;div&gt;&lt;span&gt;server {&lt;/span&gt;&lt;/div&gt;&lt;div&gt;&lt;span&gt;&amp;nbsp; &amp;nbsp; &amp;nbsp; &amp;nbsp; listen 443 ssl;&lt;/span&gt;&lt;/div&gt;&lt;div&gt;&lt;span&gt;&amp;nbsp; &amp;nbsp; &amp;nbsp; &amp;nbsp; server_name java.feng.org;&lt;/span&gt;&lt;/div&gt;&lt;div&gt;&lt;span&gt;&amp;nbsp; &amp;nbsp; &amp;nbsp; &amp;nbsp; root /data/html/java;&lt;/span&gt;&lt;/div&gt;&lt;div&gt;&lt;span&gt;&lt;br&gt;&lt;/span&gt;&lt;/div&gt;&lt;div&gt;&lt;span&gt;&amp;nbsp; &amp;nbsp; &amp;nbsp; &amp;nbsp; ssl_certificate /usr/share/easy-rsa/pki/java.feng.org.pem;&lt;/span&gt;&lt;/div&gt;&lt;div&gt;&lt;span&gt;&amp;nbsp; &amp;nbsp; &amp;nbsp; &amp;nbsp; ssl_certificate_key /usr/share/easy-rsa/pki/private/java.feng.org.key;&lt;/span&gt;&lt;/div&gt;&lt;div&gt;&lt;span&gt;&amp;nbsp; &amp;nbsp; &amp;nbsp; &amp;nbsp; ssl_session_cache shared:sslcache:20m;&lt;/span&gt;&lt;/div&gt;&lt;div&gt;&lt;span&gt;&amp;nbsp; &amp;nbsp; &amp;nbsp; &amp;nbsp; ssl_session_timeout 10m;&lt;/span&gt;&lt;/div&gt;&lt;div&gt;&lt;span&gt;&lt;br&gt;&lt;/span&gt;&lt;/div&gt;&lt;div&gt;&lt;span&gt;&amp;nbsp; &amp;nbsp; &amp;nbsp; &amp;nbsp; location ~* \.jsp$ {&lt;/span&gt;&lt;/div&gt;&lt;div&gt;&lt;span&gt;&amp;nbsp; &amp;nbsp; &amp;nbsp; &amp;nbsp; &amp;nbsp; &amp;nbsp; &amp;nbsp; &amp;nbsp; proxy_pass http://group1;&lt;/span&gt;&lt;/div&gt;&lt;div&gt;&lt;span&gt;&amp;nbsp; &amp;nbsp; &amp;nbsp; &amp;nbsp; &amp;nbsp; &amp;nbsp; &amp;nbsp; &amp;nbsp; proxy_set_header host $http_host;&lt;/span&gt;&lt;/div&gt;&lt;div&gt;&lt;span&gt;&amp;nbsp; &amp;nbsp; &amp;nbsp; &amp;nbsp; }&lt;/span&gt;&lt;/div&gt;&lt;div&gt;&lt;span&gt;}&lt;/span&gt;&lt;/div&gt;&lt;div&gt;&lt;/div&gt;" link="[root@ubuntu ~]# cat /etc/nginx/conf.d/java.m99-magedu.com.conf &#xa;upstream tomcat {&#xa;    ip_hash;&#xa;    hash $remoute_addr;     &#xa;    hash $cookie_JSESSION consistent;   # 三选一&#xa;    &#xa;    server 10.0.0.208:8080;&#xa;    server 10.0.0.210:8080;&#xa;}" id="h2VIEQUBgTQc3Tr8gH1n-171">
          <mxCell style="rounded=1;whiteSpace=wrap;html=1;fillColor=#e1d5e7;strokeColor=#9673a6;fontStyle=0;align=left;spacingLeft=20;" vertex="1" parent="h2VIEQUBgTQc3Tr8gH1n-182">
            <mxGeometry x="1380" y="250" width="340" height="520" as="geometry" />
          </mxCell>
        </UserObject>
        <mxCell id="h2VIEQUBgTQc3Tr8gH1n-175" style="edgeStyle=orthogonalEdgeStyle;curved=0;rounded=1;orthogonalLoop=1;jettySize=auto;html=1;exitX=0.5;exitY=1;exitDx=0;exitDy=0;entryX=0.5;entryY=0;entryDx=0;entryDy=0;strokeColor=default;align=center;verticalAlign=middle;fontFamily=Helvetica;fontSize=11;fontColor=default;labelBackgroundColor=default;endArrow=none;endFill=0;" edge="1" parent="h2VIEQUBgTQc3Tr8gH1n-182" source="h2VIEQUBgTQc3Tr8gH1n-173" target="h2VIEQUBgTQc3Tr8gH1n-174">
          <mxGeometry relative="1" as="geometry" />
        </mxCell>
        <mxCell id="h2VIEQUBgTQc3Tr8gH1n-173" value="实现真实客户端IP地址透传" style="rounded=1;whiteSpace=wrap;html=1;fillColor=#e1d5e7;strokeColor=#9673a6;fontStyle=1" vertex="1" parent="h2VIEQUBgTQc3Tr8gH1n-182">
          <mxGeometry x="1910" y="140" width="200" height="50" as="geometry" />
        </mxCell>
        <UserObject label="&lt;div&gt;&lt;div&gt;&lt;span&gt;&lt;b&gt;# 在Nginx服务器上添加X-Forwarded-For&lt;/b&gt;&lt;/span&gt;&lt;/div&gt;&lt;div&gt;&lt;span&gt;&lt;b&gt;&lt;br&gt;&lt;/b&gt;&lt;/span&gt;&lt;/div&gt;&lt;div&gt;&lt;span&gt;&amp;nbsp;location ~* \.jsp$ {&lt;/span&gt;&lt;/div&gt;&lt;div&gt;&lt;span&gt;&amp;nbsp; &amp;nbsp; &amp;nbsp; &amp;nbsp; &amp;nbsp; &amp;nbsp; &amp;nbsp; &amp;nbsp; proxy_pass http://group1;&lt;/span&gt;&lt;/div&gt;&lt;div&gt;&lt;span&gt;&amp;nbsp; &amp;nbsp; &amp;nbsp; &amp;nbsp; &amp;nbsp; &amp;nbsp; &amp;nbsp; &amp;nbsp; proxy_set_header host $http_host;&lt;/span&gt;&lt;/div&gt;&lt;div&gt;&lt;span&gt;&amp;nbsp; &amp;nbsp; &amp;nbsp; &amp;nbsp; &amp;nbsp; &amp;nbsp; &amp;nbsp; &amp;nbsp; proxy_set_header X-Forwarded-For $proxy_add_x_forwarded_for;&lt;/span&gt;&lt;/div&gt;&lt;div&gt;&lt;span&gt;&amp;nbsp; &amp;nbsp; &amp;nbsp; &amp;nbsp; }&lt;/span&gt;&lt;/div&gt;&lt;div&gt;&lt;span&gt;&lt;br&gt;&lt;/span&gt;&lt;/div&gt;&lt;div&gt;&lt;span&gt;&lt;b&gt;# 在tomcat的server.xml上更改日志，查看效果&lt;/b&gt;&lt;/span&gt;&lt;/div&gt;&lt;div&gt;&lt;span&gt;&lt;b&gt;&lt;br&gt;&lt;/b&gt;&lt;/span&gt;&lt;/div&gt;&lt;div&gt;&lt;span&gt;&amp;lt;Valve className=&quot;org.apache.catalina.valves.AccessLogValve&quot; directory=&quot;logs&quot;&lt;/span&gt;&lt;/div&gt;&lt;div&gt;&lt;span&gt;&amp;nbsp; &amp;nbsp; &amp;nbsp; &amp;nbsp; &amp;nbsp; &amp;nbsp; &amp;nbsp; &amp;nbsp;prefix=&quot;java.feng.org_access_log&quot; suffix=&quot;.txt&quot;&lt;/span&gt;&lt;/div&gt;&lt;div&gt;&lt;span&gt;&amp;nbsp; &amp;nbsp; &amp;nbsp; &amp;nbsp; &amp;nbsp; &amp;nbsp; &amp;nbsp; &amp;nbsp; pattern=&quot;%h %l %u %t &amp;amp;quot;%r&amp;amp;quot; %s %b %{x-forwarded-for}i&quot; /&amp;gt;&lt;/span&gt;&lt;/div&gt;&lt;/div&gt;&lt;div&gt;&lt;/div&gt;" link="[root@ubuntu ~]# cat /etc/nginx/conf.d/java.m99-magedu.com.conf &#xa;upstream tomcat {&#xa;    ip_hash;&#xa;    hash $remoute_addr;     &#xa;    hash $cookie_JSESSION consistent;   # 三选一&#xa;    &#xa;    server 10.0.0.208:8080;&#xa;    server 10.0.0.210:8080;&#xa;}" id="h2VIEQUBgTQc3Tr8gH1n-174">
          <mxCell style="rounded=1;whiteSpace=wrap;html=1;fillColor=#e1d5e7;strokeColor=#9673a6;fontStyle=0;align=left;spacingLeft=20;" vertex="1" parent="h2VIEQUBgTQc3Tr8gH1n-182">
            <mxGeometry x="1840" y="250" width="340" height="330" as="geometry" />
          </mxCell>
        </UserObject>
        <mxCell id="h2VIEQUBgTQc3Tr8gH1n-228" value="" style="group" vertex="1" connectable="0" parent="1">
          <mxGeometry x="-590" y="3430" width="2849" height="1340" as="geometry" />
        </mxCell>
        <mxCell id="h2VIEQUBgTQc3Tr8gH1n-224" style="edgeStyle=orthogonalEdgeStyle;curved=0;rounded=1;orthogonalLoop=1;jettySize=auto;html=1;exitX=0.5;exitY=1;exitDx=0;exitDy=0;entryX=0.5;entryY=0;entryDx=0;entryDy=0;strokeColor=default;align=center;verticalAlign=middle;fontFamily=Helvetica;fontSize=11;fontColor=default;labelBackgroundColor=default;endArrow=none;endFill=0;" edge="1" parent="h2VIEQUBgTQc3Tr8gH1n-228" source="h2VIEQUBgTQc3Tr8gH1n-183" target="h2VIEQUBgTQc3Tr8gH1n-184">
          <mxGeometry relative="1" as="geometry" />
        </mxCell>
        <mxCell id="h2VIEQUBgTQc3Tr8gH1n-225" style="edgeStyle=orthogonalEdgeStyle;curved=0;rounded=1;orthogonalLoop=1;jettySize=auto;html=1;exitX=0.5;exitY=1;exitDx=0;exitDy=0;entryX=0.5;entryY=0;entryDx=0;entryDy=0;strokeColor=default;align=center;verticalAlign=middle;fontFamily=Helvetica;fontSize=11;fontColor=default;labelBackgroundColor=default;endArrow=none;endFill=0;" edge="1" parent="h2VIEQUBgTQc3Tr8gH1n-228" source="h2VIEQUBgTQc3Tr8gH1n-183" target="h2VIEQUBgTQc3Tr8gH1n-197">
          <mxGeometry relative="1" as="geometry" />
        </mxCell>
        <mxCell id="h2VIEQUBgTQc3Tr8gH1n-183" value="Tomcat-Session共享" style="rounded=1;whiteSpace=wrap;html=1;fillColor=#d80073;fontColor=#ffffff;strokeColor=#A50040;fontStyle=1" vertex="1" parent="h2VIEQUBgTQc3Tr8gH1n-228">
          <mxGeometry x="1330" width="180" height="50" as="geometry" />
        </mxCell>
        <mxCell id="h2VIEQUBgTQc3Tr8gH1n-195" style="edgeStyle=orthogonalEdgeStyle;curved=0;rounded=1;orthogonalLoop=1;jettySize=auto;html=1;exitX=0.5;exitY=1;exitDx=0;exitDy=0;entryX=0.5;entryY=0;entryDx=0;entryDy=0;strokeColor=default;align=center;verticalAlign=middle;fontFamily=Helvetica;fontSize=11;fontColor=default;labelBackgroundColor=default;endArrow=none;endFill=0;" edge="1" parent="h2VIEQUBgTQc3Tr8gH1n-228" source="h2VIEQUBgTQc3Tr8gH1n-184" target="h2VIEQUBgTQc3Tr8gH1n-185">
          <mxGeometry relative="1" as="geometry" />
        </mxCell>
        <mxCell id="h2VIEQUBgTQc3Tr8gH1n-196" style="edgeStyle=orthogonalEdgeStyle;curved=0;rounded=1;orthogonalLoop=1;jettySize=auto;html=1;exitX=0.5;exitY=1;exitDx=0;exitDy=0;entryX=0.5;entryY=0;entryDx=0;entryDy=0;strokeColor=default;align=center;verticalAlign=middle;fontFamily=Helvetica;fontSize=11;fontColor=default;labelBackgroundColor=default;endArrow=none;endFill=0;" edge="1" parent="h2VIEQUBgTQc3Tr8gH1n-228" source="h2VIEQUBgTQc3Tr8gH1n-184" target="h2VIEQUBgTQc3Tr8gH1n-188">
          <mxGeometry relative="1" as="geometry" />
        </mxCell>
        <mxCell id="h2VIEQUBgTQc3Tr8gH1n-184" value="Tomcat-Session复制集群" style="rounded=1;whiteSpace=wrap;html=1;fillColor=#f8cecc;strokeColor=#b85450;fontStyle=1" vertex="1" parent="h2VIEQUBgTQc3Tr8gH1n-228">
          <mxGeometry x="429" y="110" width="180" height="50" as="geometry" />
        </mxCell>
        <mxCell id="h2VIEQUBgTQc3Tr8gH1n-187" style="edgeStyle=orthogonalEdgeStyle;curved=0;rounded=1;orthogonalLoop=1;jettySize=auto;html=1;exitX=0.5;exitY=1;exitDx=0;exitDy=0;entryX=0.5;entryY=0;entryDx=0;entryDy=0;strokeColor=default;align=center;verticalAlign=middle;fontFamily=Helvetica;fontSize=11;fontColor=default;labelBackgroundColor=default;endArrow=none;endFill=0;" edge="1" parent="h2VIEQUBgTQc3Tr8gH1n-228" source="h2VIEQUBgTQc3Tr8gH1n-185" target="h2VIEQUBgTQc3Tr8gH1n-186">
          <mxGeometry relative="1" as="geometry" />
        </mxCell>
        <mxCell id="h2VIEQUBgTQc3Tr8gH1n-185" value="在集群内所有tomcat节点的&lt;div&gt;server.xml文件的&amp;lt;Host&amp;gt;标签内添加下列内容&lt;/div&gt;" style="rounded=1;whiteSpace=wrap;html=1;fillColor=#f8cecc;strokeColor=#b85450;fontStyle=1" vertex="1" parent="h2VIEQUBgTQc3Tr8gH1n-228">
          <mxGeometry x="125" y="210" width="270" height="50" as="geometry" />
        </mxCell>
        <mxCell id="h2VIEQUBgTQc3Tr8gH1n-186" value="&lt;div&gt;&amp;lt;Cluster className=&quot;org.apache.catalina.ha.tcp.SimpleTcpCluster&quot; channelSendOptions=&quot;8&quot;&amp;gt;&lt;/div&gt;&lt;div&gt;&amp;nbsp; &amp;nbsp; &amp;lt;Manager className=&quot;org.apache.catalina.ha.session.DeltaManager&quot; expireSessionsOnShutdown=&quot;false&quot; notifyListenersOnReplication=&quot;true&quot;/&amp;gt;&lt;/div&gt;&lt;div&gt;&lt;br&gt;&lt;/div&gt;&lt;div&gt;&amp;nbsp; &amp;nbsp; &amp;lt;!-- Channel定义了用于节点间通信的通道 --&amp;gt;&lt;/div&gt;&lt;div&gt;&amp;nbsp; &amp;nbsp; &amp;lt;Channel className=&quot;org.apache.catalina.tribes.group.GroupChannel&quot;&amp;gt;&lt;/div&gt;&lt;div&gt;&amp;nbsp; &amp;nbsp; &amp;lt;!-- 定义集群相关配置，集群中每个节点此处配置相同，才表示是同一个集群，此处配置用来做心跳检测 --&amp;gt;&lt;/div&gt;&lt;div&gt;&amp;nbsp; &amp;nbsp; &amp;lt;Membership className=&quot;org.apache.catalina.tribes.membership.McastService&quot; address=&quot;228.0.0.4&quot; port=&quot;45564&quot; frequency=&quot;500&quot; dropTime=&quot;3000&quot;/&amp;gt;&lt;/div&gt;&lt;div&gt;&amp;nbsp; &amp;nbsp; &amp;lt;!-- 定义集群节点接收消息的配置 --&amp;gt;&amp;nbsp;&amp;nbsp;&lt;/div&gt;&lt;div&gt;&amp;nbsp; &amp;nbsp; &amp;lt;Receiver className=&quot;org.apache.catalina.tribes.transport.nio.NioReceiver&quot; address=&quot;auto&quot;&amp;nbsp; port=&quot;4000&quot; autoBind=&quot;100&quot; selectorTimeout=&quot;5000&quot;&amp;nbsp; maxThreads=&quot;6&quot;/&amp;gt;&lt;/div&gt;&lt;div&gt;&lt;br&gt;&lt;/div&gt;&lt;div&gt;&amp;nbsp; &amp;nbsp; &amp;lt;Sender className=&quot;org.apache.catalina.tribes.transport.ReplicationTransmitter&quot;&amp;gt;&lt;/div&gt;&lt;div&gt;&amp;nbsp; &amp;nbsp; &amp;nbsp; &amp;nbsp; &amp;lt;Transport className=&quot;org.apache.catalina.tribes.transport.nio.PooledParallelSender&quot;/&amp;gt;&lt;/div&gt;&lt;div&gt;&amp;nbsp; &amp;nbsp; &amp;lt;/Sender&amp;gt;&lt;/div&gt;&lt;div&gt;&amp;nbsp; &amp;nbsp; &amp;lt;Interceptor className=&quot;org.apache.catalina.tribes.group.interceptors.TcpFailureDetector&quot;/&amp;gt;&lt;/div&gt;&lt;div&gt;&amp;nbsp; &amp;nbsp; &amp;lt;Interceptor className=&quot;org.apache.catalina.tribes.group.interceptors.MessageDispatchIntercep tor&quot;/&amp;gt;&lt;/div&gt;&lt;div&gt;&amp;nbsp; &amp;nbsp; &amp;lt;/Channel&amp;gt;&lt;/div&gt;&lt;div&gt;&amp;nbsp; &amp;nbsp; &amp;lt;Valve className=&quot;org.apache.catalina.ha.tcp.ReplicationValve&quot;&amp;nbsp; filter=&quot;&quot;/&amp;gt;&lt;/div&gt;&lt;div&gt;&amp;nbsp; &amp;nbsp; &amp;lt;Valve className=&quot;org.apache.catalina.ha.session.JvmRouteBinderValve&quot;/&amp;gt;&lt;/div&gt;&lt;div&gt;&amp;nbsp; &amp;nbsp; &amp;lt;Deployer className=&quot;org.apache.catalina.ha.deploy.FarmWarDeployer&quot; tempDir=&quot;/tmp/war-temp/&quot; deployDir=&quot;/tmp/war-deploy/&quot; watchDir=&quot;/tmp/war-listen/&quot; watchEnabled=&quot;false&quot;/&amp;gt;&lt;/div&gt;&lt;div&gt;&amp;nbsp; &amp;nbsp; &amp;lt;ClusterListener className=&quot;org.apache.catalina.ha.session.ClusterSessionListener&quot;/&amp;gt;&lt;/div&gt;&lt;div&gt;&amp;nbsp;&amp;lt;/Cluster&amp;gt;&lt;/div&gt;" style="rounded=1;whiteSpace=wrap;html=1;fillColor=#f8cecc;strokeColor=#b85450;fontStyle=0;align=left;spacingLeft=20;spacingRight=20;" vertex="1" parent="h2VIEQUBgTQc3Tr8gH1n-228">
          <mxGeometry y="290" width="519" height="570" as="geometry" />
        </mxCell>
        <mxCell id="h2VIEQUBgTQc3Tr8gH1n-190" style="edgeStyle=orthogonalEdgeStyle;curved=0;rounded=1;orthogonalLoop=1;jettySize=auto;html=1;exitX=0.5;exitY=1;exitDx=0;exitDy=0;entryX=0.5;entryY=0;entryDx=0;entryDy=0;strokeColor=default;align=center;verticalAlign=middle;fontFamily=Helvetica;fontSize=11;fontColor=default;labelBackgroundColor=default;endArrow=none;endFill=0;" edge="1" parent="h2VIEQUBgTQc3Tr8gH1n-228" source="h2VIEQUBgTQc3Tr8gH1n-188" target="h2VIEQUBgTQc3Tr8gH1n-189">
          <mxGeometry relative="1" as="geometry" />
        </mxCell>
        <mxCell id="h2VIEQUBgTQc3Tr8gH1n-188" value="在项目的web.xml中添加&amp;lt;distributable/&amp;gt;" style="rounded=1;whiteSpace=wrap;html=1;fillColor=#f8cecc;strokeColor=#b85450;fontStyle=1" vertex="1" parent="h2VIEQUBgTQc3Tr8gH1n-228">
          <mxGeometry x="609" y="210" width="270" height="50" as="geometry" />
        </mxCell>
        <mxCell id="h2VIEQUBgTQc3Tr8gH1n-192" style="edgeStyle=orthogonalEdgeStyle;curved=0;rounded=1;orthogonalLoop=1;jettySize=auto;html=1;exitX=0.5;exitY=1;exitDx=0;exitDy=0;entryX=0.5;entryY=0;entryDx=0;entryDy=0;strokeColor=default;align=center;verticalAlign=middle;fontFamily=Helvetica;fontSize=11;fontColor=default;labelBackgroundColor=default;endArrow=none;endFill=0;" edge="1" parent="h2VIEQUBgTQc3Tr8gH1n-228" source="h2VIEQUBgTQc3Tr8gH1n-189" target="h2VIEQUBgTQc3Tr8gH1n-191">
          <mxGeometry relative="1" as="geometry" />
        </mxCell>
        <mxCell id="h2VIEQUBgTQc3Tr8gH1n-189" value="&lt;div&gt;cp -r webapps/ROOT/WEB-INF/ /data/webapps/ROOT/&lt;/div&gt;&lt;div&gt;&lt;br&gt;&lt;/div&gt;&lt;div&gt;cat /data/webapps/ROOT/WEB-INF/web.xml&amp;nbsp;&lt;/div&gt;&lt;div&gt;&amp;lt;?xml version=&quot;1.0&quot; encoding=&quot;UTF-8&quot;?&amp;gt;&lt;/div&gt;&lt;div&gt;&amp;nbsp;&amp;lt;web-app xmlns=&quot;http://xmlns.jcp.org/xml/ns/javaee&quot;&lt;/div&gt;&lt;div&gt;&amp;nbsp; xmlns:xsi=&quot;http://www.w3.org/2001/XMLSchema-instance&quot;&lt;/div&gt;&lt;div&gt;&amp;nbsp; xsi:schemaLocation=&quot;http://xmlns.jcp.org/xml/ns/javaee&amp;nbsp;&lt;/div&gt;&lt;div&gt;http://xmlns.jcp.org/xml/ns/javaee/web-app_4_0.xsd&quot;&lt;/div&gt;&lt;div&gt;&amp;nbsp;version=&quot;4.0&quot; metadata-complete=&quot;true&quot;&amp;gt;&lt;/div&gt;&lt;div&gt;&amp;lt;display-name&amp;gt;Welcome to Tomcat&amp;lt;/display-name&amp;gt;&lt;/div&gt;&lt;div&gt;&amp;nbsp; &amp;lt;description&amp;gt;&lt;/div&gt;&lt;div&gt;&amp;nbsp; &amp;nbsp; &amp;nbsp;Welcome to Tomcat&lt;/div&gt;&lt;div&gt;&amp;nbsp; &amp;lt;/description&amp;gt;&lt;/div&gt;&lt;div&gt;&amp;nbsp;&lt;b&gt;&amp;lt;distributable /&amp;gt;&amp;nbsp; # 添加此行&lt;/b&gt;&amp;nbsp; &amp;nbsp; &amp;nbsp; &amp;nbsp;&lt;/div&gt;&lt;div&gt;&amp;lt;/web-app&amp;gt;&lt;/div&gt;&lt;div&gt;&lt;br&gt;&lt;/div&gt;" style="rounded=1;whiteSpace=wrap;html=1;fillColor=#f8cecc;strokeColor=#b85450;fontStyle=0;align=left;spacingLeft=20;spacingRight=20;" vertex="1" parent="h2VIEQUBgTQc3Tr8gH1n-228">
          <mxGeometry x="559" y="310" width="370" height="280" as="geometry" />
        </mxCell>
        <mxCell id="h2VIEQUBgTQc3Tr8gH1n-194" style="edgeStyle=orthogonalEdgeStyle;curved=0;rounded=1;orthogonalLoop=1;jettySize=auto;html=1;exitX=0.5;exitY=1;exitDx=0;exitDy=0;entryX=0.5;entryY=0;entryDx=0;entryDy=0;strokeColor=default;align=center;verticalAlign=middle;fontFamily=Helvetica;fontSize=11;fontColor=default;labelBackgroundColor=default;endArrow=none;endFill=0;" edge="1" parent="h2VIEQUBgTQc3Tr8gH1n-228" source="h2VIEQUBgTQc3Tr8gH1n-191" target="h2VIEQUBgTQc3Tr8gH1n-193">
          <mxGeometry relative="1" as="geometry" />
        </mxCell>
        <mxCell id="h2VIEQUBgTQc3Tr8gH1n-191" value="保证授权" style="rounded=1;whiteSpace=wrap;html=1;fillColor=#f8cecc;strokeColor=#b85450;fontStyle=1" vertex="1" parent="h2VIEQUBgTQc3Tr8gH1n-228">
          <mxGeometry x="689" y="640" width="110" height="50" as="geometry" />
        </mxCell>
        <mxCell id="h2VIEQUBgTQc3Tr8gH1n-193" value="chown -R tomcat.tomcat /data/html" style="rounded=1;whiteSpace=wrap;html=1;fillColor=#f8cecc;strokeColor=#b85450;fontStyle=1" vertex="1" parent="h2VIEQUBgTQc3Tr8gH1n-228">
          <mxGeometry x="634" y="730" width="220" height="50" as="geometry" />
        </mxCell>
        <mxCell id="h2VIEQUBgTQc3Tr8gH1n-219" style="edgeStyle=orthogonalEdgeStyle;curved=0;rounded=1;orthogonalLoop=1;jettySize=auto;html=1;exitX=0.5;exitY=1;exitDx=0;exitDy=0;entryX=0.5;entryY=0;entryDx=0;entryDy=0;strokeColor=default;align=center;verticalAlign=middle;fontFamily=Helvetica;fontSize=11;fontColor=default;labelBackgroundColor=default;endArrow=none;endFill=0;" edge="1" parent="h2VIEQUBgTQc3Tr8gH1n-228" source="h2VIEQUBgTQc3Tr8gH1n-197" target="h2VIEQUBgTQc3Tr8gH1n-198">
          <mxGeometry relative="1" as="geometry" />
        </mxCell>
        <mxCell id="h2VIEQUBgTQc3Tr8gH1n-220" style="edgeStyle=orthogonalEdgeStyle;curved=0;rounded=1;orthogonalLoop=1;jettySize=auto;html=1;exitX=0.5;exitY=1;exitDx=0;exitDy=0;entryX=0.5;entryY=0;entryDx=0;entryDy=0;strokeColor=default;align=center;verticalAlign=middle;fontFamily=Helvetica;fontSize=11;fontColor=default;labelBackgroundColor=default;endArrow=none;endFill=0;" edge="1" parent="h2VIEQUBgTQc3Tr8gH1n-228" source="h2VIEQUBgTQc3Tr8gH1n-197" target="h2VIEQUBgTQc3Tr8gH1n-199">
          <mxGeometry relative="1" as="geometry" />
        </mxCell>
        <mxCell id="h2VIEQUBgTQc3Tr8gH1n-221" style="edgeStyle=orthogonalEdgeStyle;curved=0;rounded=1;orthogonalLoop=1;jettySize=auto;html=1;exitX=0.5;exitY=1;exitDx=0;exitDy=0;entryX=0.5;entryY=0;entryDx=0;entryDy=0;strokeColor=default;align=center;verticalAlign=middle;fontFamily=Helvetica;fontSize=11;fontColor=default;labelBackgroundColor=default;endArrow=none;endFill=0;" edge="1" parent="h2VIEQUBgTQc3Tr8gH1n-228" source="h2VIEQUBgTQc3Tr8gH1n-197" target="h2VIEQUBgTQc3Tr8gH1n-200">
          <mxGeometry relative="1" as="geometry" />
        </mxCell>
        <mxCell id="h2VIEQUBgTQc3Tr8gH1n-197" value="Memcached实现session共享" style="rounded=1;whiteSpace=wrap;html=1;fillColor=#f8cecc;strokeColor=#b85450;fontStyle=1" vertex="1" parent="h2VIEQUBgTQc3Tr8gH1n-228">
          <mxGeometry x="1840" y="120" width="180" height="50" as="geometry" />
        </mxCell>
        <mxCell id="h2VIEQUBgTQc3Tr8gH1n-204" style="edgeStyle=orthogonalEdgeStyle;curved=0;rounded=1;orthogonalLoop=1;jettySize=auto;html=1;exitX=0.5;exitY=1;exitDx=0;exitDy=0;entryX=0.5;entryY=0;entryDx=0;entryDy=0;strokeColor=default;align=center;verticalAlign=middle;fontFamily=Helvetica;fontSize=11;fontColor=default;labelBackgroundColor=default;endArrow=none;endFill=0;" edge="1" parent="h2VIEQUBgTQc3Tr8gH1n-228" source="h2VIEQUBgTQc3Tr8gH1n-198" target="h2VIEQUBgTQc3Tr8gH1n-203">
          <mxGeometry relative="1" as="geometry" />
        </mxCell>
        <mxCell id="h2VIEQUBgTQc3Tr8gH1n-198" value="安装并配置mamcached" style="rounded=1;whiteSpace=wrap;html=1;fillColor=#f8cecc;strokeColor=#b85450;fontStyle=1" vertex="1" parent="h2VIEQUBgTQc3Tr8gH1n-228">
          <mxGeometry x="1009" y="210" width="200" height="50" as="geometry" />
        </mxCell>
        <mxCell id="h2VIEQUBgTQc3Tr8gH1n-210" style="edgeStyle=orthogonalEdgeStyle;curved=0;rounded=1;orthogonalLoop=1;jettySize=auto;html=1;exitX=0.5;exitY=1;exitDx=0;exitDy=0;entryX=0.5;entryY=0;entryDx=0;entryDy=0;strokeColor=default;align=center;verticalAlign=middle;fontFamily=Helvetica;fontSize=11;fontColor=default;labelBackgroundColor=default;endArrow=none;endFill=0;" edge="1" parent="h2VIEQUBgTQc3Tr8gH1n-228" source="h2VIEQUBgTQc3Tr8gH1n-199" target="h2VIEQUBgTQc3Tr8gH1n-209">
          <mxGeometry relative="1" as="geometry" />
        </mxCell>
        <mxCell id="h2VIEQUBgTQc3Tr8gH1n-199" value="下载相关jar包在/usr/local/tomcat/lib" style="rounded=1;whiteSpace=wrap;html=1;fillColor=#f8cecc;strokeColor=#b85450;fontStyle=1" vertex="1" parent="h2VIEQUBgTQc3Tr8gH1n-228">
          <mxGeometry x="1384" y="210" width="230" height="50" as="geometry" />
        </mxCell>
        <mxCell id="h2VIEQUBgTQc3Tr8gH1n-215" style="edgeStyle=orthogonalEdgeStyle;curved=0;rounded=1;orthogonalLoop=1;jettySize=auto;html=1;exitX=0.5;exitY=1;exitDx=0;exitDy=0;entryX=0.5;entryY=0;entryDx=0;entryDy=0;strokeColor=default;align=center;verticalAlign=middle;fontFamily=Helvetica;fontSize=11;fontColor=default;labelBackgroundColor=default;endArrow=none;endFill=0;" edge="1" parent="h2VIEQUBgTQc3Tr8gH1n-228" source="h2VIEQUBgTQc3Tr8gH1n-200" target="h2VIEQUBgTQc3Tr8gH1n-201">
          <mxGeometry relative="1" as="geometry" />
        </mxCell>
        <mxCell id="h2VIEQUBgTQc3Tr8gH1n-216" style="edgeStyle=orthogonalEdgeStyle;curved=0;rounded=1;orthogonalLoop=1;jettySize=auto;html=1;exitX=0.5;exitY=1;exitDx=0;exitDy=0;entryX=0.5;entryY=0;entryDx=0;entryDy=0;strokeColor=default;align=center;verticalAlign=middle;fontFamily=Helvetica;fontSize=11;fontColor=default;labelBackgroundColor=default;endArrow=none;endFill=0;" edge="1" parent="h2VIEQUBgTQc3Tr8gH1n-228" source="h2VIEQUBgTQc3Tr8gH1n-200" target="h2VIEQUBgTQc3Tr8gH1n-202">
          <mxGeometry relative="1" as="geometry" />
        </mxCell>
        <mxCell id="h2VIEQUBgTQc3Tr8gH1n-200" value="在tomcat服务器上连接memcache的服务器" style="rounded=1;whiteSpace=wrap;html=1;fillColor=#f8cecc;strokeColor=#b85450;fontStyle=1" vertex="1" parent="h2VIEQUBgTQc3Tr8gH1n-228">
          <mxGeometry x="2129" y="210" width="310" height="50" as="geometry" />
        </mxCell>
        <mxCell id="h2VIEQUBgTQc3Tr8gH1n-212" style="edgeStyle=orthogonalEdgeStyle;curved=0;rounded=1;orthogonalLoop=1;jettySize=auto;html=1;exitX=0.5;exitY=1;exitDx=0;exitDy=0;strokeColor=default;align=center;verticalAlign=middle;fontFamily=Helvetica;fontSize=11;fontColor=default;labelBackgroundColor=default;endArrow=none;endFill=0;" edge="1" parent="h2VIEQUBgTQc3Tr8gH1n-228" source="h2VIEQUBgTQc3Tr8gH1n-201" target="h2VIEQUBgTQc3Tr8gH1n-211">
          <mxGeometry relative="1" as="geometry" />
        </mxCell>
        <mxCell id="h2VIEQUBgTQc3Tr8gH1n-201" value="Sticky模式实现session共享群" style="rounded=1;whiteSpace=wrap;html=1;fillColor=#f8cecc;strokeColor=#b85450;fontStyle=1" vertex="1" parent="h2VIEQUBgTQc3Tr8gH1n-228">
          <mxGeometry x="1902.5" y="310" width="233" height="50" as="geometry" />
        </mxCell>
        <mxCell id="h2VIEQUBgTQc3Tr8gH1n-214" style="edgeStyle=orthogonalEdgeStyle;curved=0;rounded=1;orthogonalLoop=1;jettySize=auto;html=1;exitX=0.5;exitY=1;exitDx=0;exitDy=0;entryX=0.5;entryY=0;entryDx=0;entryDy=0;strokeColor=default;align=center;verticalAlign=middle;fontFamily=Helvetica;fontSize=11;fontColor=default;labelBackgroundColor=default;endArrow=none;endFill=0;" edge="1" parent="h2VIEQUBgTQc3Tr8gH1n-228" source="h2VIEQUBgTQc3Tr8gH1n-202" target="h2VIEQUBgTQc3Tr8gH1n-213">
          <mxGeometry relative="1" as="geometry" />
        </mxCell>
        <mxCell id="h2VIEQUBgTQc3Tr8gH1n-202" value="非Sticky模式实现session共享群" style="rounded=1;whiteSpace=wrap;html=1;fillColor=#f8cecc;strokeColor=#b85450;fontStyle=1" vertex="1" parent="h2VIEQUBgTQc3Tr8gH1n-228">
          <mxGeometry x="2467.5" y="310" width="233" height="50" as="geometry" />
        </mxCell>
        <mxCell id="h2VIEQUBgTQc3Tr8gH1n-207" style="edgeStyle=orthogonalEdgeStyle;curved=0;rounded=1;orthogonalLoop=1;jettySize=auto;html=1;exitX=0.5;exitY=1;exitDx=0;exitDy=0;entryX=0.5;entryY=0;entryDx=0;entryDy=0;strokeColor=default;align=center;verticalAlign=middle;fontFamily=Helvetica;fontSize=11;fontColor=default;labelBackgroundColor=default;endArrow=none;endFill=0;" edge="1" parent="h2VIEQUBgTQc3Tr8gH1n-228" source="h2VIEQUBgTQc3Tr8gH1n-203" target="h2VIEQUBgTQc3Tr8gH1n-205">
          <mxGeometry relative="1" as="geometry" />
        </mxCell>
        <mxCell id="h2VIEQUBgTQc3Tr8gH1n-203" value="apt update; apt install memcached -y" style="rounded=1;whiteSpace=wrap;html=1;fillColor=#f8cecc;strokeColor=#b85450;fontStyle=0" vertex="1" parent="h2VIEQUBgTQc3Tr8gH1n-228">
          <mxGeometry x="989" y="310" width="240" height="50" as="geometry" />
        </mxCell>
        <mxCell id="h2VIEQUBgTQc3Tr8gH1n-208" style="edgeStyle=orthogonalEdgeStyle;curved=0;rounded=1;orthogonalLoop=1;jettySize=auto;html=1;exitX=0.5;exitY=1;exitDx=0;exitDy=0;entryX=0.5;entryY=0;entryDx=0;entryDy=0;strokeColor=default;align=center;verticalAlign=middle;fontFamily=Helvetica;fontSize=11;fontColor=default;labelBackgroundColor=default;endArrow=none;endFill=0;" edge="1" parent="h2VIEQUBgTQc3Tr8gH1n-228" source="h2VIEQUBgTQc3Tr8gH1n-205" target="h2VIEQUBgTQc3Tr8gH1n-206">
          <mxGeometry relative="1" as="geometry" />
        </mxCell>
        <mxCell id="h2VIEQUBgTQc3Tr8gH1n-205" value="修改/etc/memcached.conf,释放端口" style="rounded=1;whiteSpace=wrap;html=1;fillColor=#f8cecc;strokeColor=#b85450;fontStyle=0" vertex="1" parent="h2VIEQUBgTQc3Tr8gH1n-228">
          <mxGeometry x="989" y="410" width="240" height="50" as="geometry" />
        </mxCell>
        <mxCell id="h2VIEQUBgTQc3Tr8gH1n-206" value="注释掉 #-l 127.0.0.1" style="rounded=1;whiteSpace=wrap;html=1;fillColor=#f8cecc;strokeColor=#b85450;fontStyle=0" vertex="1" parent="h2VIEQUBgTQc3Tr8gH1n-228">
          <mxGeometry x="989" y="510" width="240" height="50" as="geometry" />
        </mxCell>
        <mxCell id="h2VIEQUBgTQc3Tr8gH1n-209" value="&lt;div&gt;&lt;div&gt;wget https://repo1.maven.org/maven2/org/ow2/asm/asm/5.2/asm-5.2.jar&lt;/div&gt;&lt;div&gt;wget https://repo1.maven.org/maven2/com/esotericsoftware/kryo/3.0.3/kryo-3.0.3.jar&lt;/div&gt;&lt;div&gt;wget https://repo1.maven.org/maven2/de/javakaffee/kryo-serializers/0.45/kryo-serializers-0.45.jar&lt;/div&gt;&lt;div&gt;wget https://repo1.maven.org/maven2/de/javakaffee/msm/memcached-session-manager/2.3.2/memcached-session-manager-2.3.2.jar&lt;/div&gt;&lt;div&gt;wget https://repo1.maven.org/maven2/de/javakaffee/msm/memcached-session-manager-tc9/2.3.2/memcached-session-manager-tc9-2.3.2.jar&lt;/div&gt;&lt;div&gt;wget https://repo1.maven.org/maven2/com/esotericsoftware/minlog/1.3.1/minlog-1.3.1.jar&lt;/div&gt;&lt;div&gt;wget https://repo1.maven.org/maven2/de/javakaffee/msm/msm-kryo-serializer/2.3.2/msm-kryo-serializer-2.3.2.jar&lt;/div&gt;&lt;div&gt;wget https://repo1.maven.org/maven2/org/objenesis/objenesis/2.6/objenesis-2.6.jar&lt;/div&gt;&lt;div&gt;wget https://repo1.maven.org/maven2/com/esotericsoftware/reflectasm/1.11.9/reflectasm-1.11.9.jar&lt;/div&gt;&lt;div&gt;wget https://repo1.maven.org/maven2/net/spy/spymemcached/2.12.3/spymemcached-2.12.3.jar&lt;/div&gt;&lt;/div&gt;" style="rounded=1;whiteSpace=wrap;html=1;fillColor=#f8cecc;strokeColor=#b85450;fontStyle=0;align=left;spacingLeft=20;spacingRight=20;" vertex="1" parent="h2VIEQUBgTQc3Tr8gH1n-228">
          <mxGeometry x="1259" y="310" width="480" height="330" as="geometry" />
        </mxCell>
        <mxCell id="h2VIEQUBgTQc3Tr8gH1n-211" value="&lt;div&gt;&lt;b&gt;# 10.0.0.150:/usr/local/tomcat/conf/context.xml&lt;/b&gt;&lt;/div&gt;&lt;div&gt;&lt;br&gt;&lt;/div&gt;&amp;lt;Manager className=&quot;de.javakaffee.web.msm.MemcachedBackupSessionManager&quot; memcachedNodes=&quot;m1:10.0.0.150:11211,m2:10.0.0.151:11211&quot; failoverNodes=&quot;m1&quot; requestUriIgnorePattern=&quot;.*\.(ico|png|gif|jpg|css|js)$&quot; transcoderFactoryClass=&quot;de.javakaffee.web.msm.serializer.kryo.KryoTranscoderFactory&quot;/&amp;gt;&lt;div&gt;&lt;br&gt;&lt;/div&gt;&lt;div&gt;&lt;b&gt;# 10.0.0.151:/usr/local/tomcat/conf/context.xml&lt;/b&gt;&lt;br&gt;&lt;/div&gt;&lt;div&gt;&lt;br&gt;&lt;/div&gt;&lt;div&gt;&amp;lt;Manager className=&quot;de.javakaffee.web.msm.MemcachedBackupSessionManager&quot; memcachedNodes=&quot;m1:10.0.0.150:11211,m2:10.0.0.151:11211&quot; failoverNodes=&quot;m2&quot; requestUriIgnorePattern=&quot;.*\.(ico|png|gif|jpg|css|js)$&quot; transcoderFactoryClass=&quot;de.javakaffee.web.msm.serializer.kryo.KryoTranscoderFactory&quot;/&amp;gt;&lt;br&gt;&lt;/div&gt;" style="rounded=1;whiteSpace=wrap;html=1;fillColor=#f8cecc;strokeColor=#b85450;fontStyle=0;align=left;spacingLeft=20;spacingRight=20;" vertex="1" parent="h2VIEQUBgTQc3Tr8gH1n-228">
          <mxGeometry x="1759" y="410" width="520" height="220" as="geometry" />
        </mxCell>
        <mxCell id="h2VIEQUBgTQc3Tr8gH1n-213" value="&lt;div&gt;&lt;div&gt;&lt;span&gt;&lt;b&gt;# 多台tomcat主机配置/usr/local/tomcat/conf/context.xml&lt;/b&gt;&lt;/span&gt;&lt;/div&gt;&lt;div&gt;&lt;span&gt;&amp;lt;Manager className=&quot;de.javakaffee.web.msm.MemcachedBackupSessionManager&quot;&lt;/span&gt;&lt;/div&gt;&lt;div&gt;&lt;span&gt;&amp;nbsp;memcachedNodes=&quot;m1:10.0.0.150:11211,m2:10.0.0.151:11211&quot;&lt;/span&gt;&lt;/div&gt;&lt;div&gt;&lt;span&gt;&amp;nbsp;sticky=&quot;false&quot;&lt;/span&gt;&lt;/div&gt;&lt;div&gt;&lt;span&gt;&amp;nbsp;sessionBackupAsync=&quot;false&quot;&lt;/span&gt;&lt;/div&gt;&lt;div&gt;&lt;span&gt;&amp;nbsp;lockingMode=&quot;uriPattern:/path1|/path2&quot;&lt;/span&gt;&lt;/div&gt;&lt;div&gt;&lt;span&gt;&amp;nbsp;requestUriIgnorePattern=&quot;.*\.(ico|png|gif|jpg|css|js)$&quot;&lt;/span&gt;&lt;/div&gt;&lt;div&gt;&lt;span&gt;&amp;nbsp;transcoderFactoryClass=&quot;de.javakaffee.web.msm.serializer.kryo.KryoTranscoderFactory&quot; /&amp;gt;&lt;/span&gt;&lt;/div&gt;&lt;/div&gt;" style="rounded=1;whiteSpace=wrap;html=1;fillColor=#f8cecc;strokeColor=#b85450;fontStyle=0;align=left;spacingLeft=20;spacingRight=20;" vertex="1" parent="h2VIEQUBgTQc3Tr8gH1n-228">
          <mxGeometry x="2319" y="410" width="530" height="160" as="geometry" />
        </mxCell>
        <mxCell id="h2VIEQUBgTQc3Tr8gH1n-288" style="edgeStyle=orthogonalEdgeStyle;curved=0;rounded=1;orthogonalLoop=1;jettySize=auto;html=1;exitX=0.5;exitY=1;exitDx=0;exitDy=0;entryX=0.5;entryY=0;entryDx=0;entryDy=0;strokeColor=default;align=center;verticalAlign=middle;fontFamily=Helvetica;fontSize=11;fontColor=default;labelBackgroundColor=default;endArrow=none;endFill=0;" edge="1" parent="h2VIEQUBgTQc3Tr8gH1n-228" source="h2VIEQUBgTQc3Tr8gH1n-230" target="h2VIEQUBgTQc3Tr8gH1n-271">
          <mxGeometry relative="1" as="geometry" />
        </mxCell>
        <mxCell id="h2VIEQUBgTQc3Tr8gH1n-230" value="Tomcat-Session共享(2)" style="rounded=1;whiteSpace=wrap;html=1;fillColor=#d80073;fontColor=#ffffff;strokeColor=#A50040;fontStyle=1" vertex="1" parent="h2VIEQUBgTQc3Tr8gH1n-228">
          <mxGeometry x="1316" y="820" width="180" height="50" as="geometry" />
        </mxCell>
        <mxCell id="h2VIEQUBgTQc3Tr8gH1n-283" style="edgeStyle=orthogonalEdgeStyle;curved=0;rounded=1;orthogonalLoop=1;jettySize=auto;html=1;exitX=0.5;exitY=1;exitDx=0;exitDy=0;entryX=0.5;entryY=0;entryDx=0;entryDy=0;strokeColor=default;align=center;verticalAlign=middle;fontFamily=Helvetica;fontSize=11;fontColor=default;labelBackgroundColor=default;endArrow=none;endFill=0;" edge="1" parent="h2VIEQUBgTQc3Tr8gH1n-228" source="h2VIEQUBgTQc3Tr8gH1n-271" target="h2VIEQUBgTQc3Tr8gH1n-273">
          <mxGeometry relative="1" as="geometry" />
        </mxCell>
        <mxCell id="h2VIEQUBgTQc3Tr8gH1n-284" style="edgeStyle=orthogonalEdgeStyle;curved=0;rounded=1;orthogonalLoop=1;jettySize=auto;html=1;exitX=0.5;exitY=1;exitDx=0;exitDy=0;entryX=0.5;entryY=0;entryDx=0;entryDy=0;strokeColor=default;align=center;verticalAlign=middle;fontFamily=Helvetica;fontSize=11;fontColor=default;labelBackgroundColor=default;endArrow=none;endFill=0;" edge="1" parent="h2VIEQUBgTQc3Tr8gH1n-228" source="h2VIEQUBgTQc3Tr8gH1n-271" target="h2VIEQUBgTQc3Tr8gH1n-272">
          <mxGeometry relative="1" as="geometry" />
        </mxCell>
        <mxCell id="h2VIEQUBgTQc3Tr8gH1n-287" style="edgeStyle=orthogonalEdgeStyle;curved=0;rounded=1;orthogonalLoop=1;jettySize=auto;html=1;exitX=0.5;exitY=1;exitDx=0;exitDy=0;entryX=0.5;entryY=0;entryDx=0;entryDy=0;strokeColor=default;align=center;verticalAlign=middle;fontFamily=Helvetica;fontSize=11;fontColor=default;labelBackgroundColor=default;endArrow=none;endFill=0;" edge="1" parent="h2VIEQUBgTQc3Tr8gH1n-228" source="h2VIEQUBgTQc3Tr8gH1n-271" target="h2VIEQUBgTQc3Tr8gH1n-274">
          <mxGeometry relative="1" as="geometry" />
        </mxCell>
        <mxCell id="h2VIEQUBgTQc3Tr8gH1n-271" value="Redis实现Session共享" style="rounded=1;whiteSpace=wrap;html=1;fillColor=#f8cecc;strokeColor=#b85450;fontStyle=1" vertex="1" parent="h2VIEQUBgTQc3Tr8gH1n-228">
          <mxGeometry x="1316" y="920" width="180" height="50" as="geometry" />
        </mxCell>
        <mxCell id="h2VIEQUBgTQc3Tr8gH1n-278" style="edgeStyle=orthogonalEdgeStyle;curved=0;rounded=1;orthogonalLoop=1;jettySize=auto;html=1;exitX=0.5;exitY=1;exitDx=0;exitDy=0;entryX=0.5;entryY=0;entryDx=0;entryDy=0;strokeColor=default;align=center;verticalAlign=middle;fontFamily=Helvetica;fontSize=11;fontColor=default;labelBackgroundColor=default;endArrow=none;endFill=0;" edge="1" parent="h2VIEQUBgTQc3Tr8gH1n-228" source="h2VIEQUBgTQc3Tr8gH1n-272" target="h2VIEQUBgTQc3Tr8gH1n-275">
          <mxGeometry relative="1" as="geometry" />
        </mxCell>
        <mxCell id="h2VIEQUBgTQc3Tr8gH1n-272" value="安装redis" style="rounded=1;whiteSpace=wrap;html=1;fillColor=#f8cecc;strokeColor=#b85450;fontStyle=1" vertex="1" parent="h2VIEQUBgTQc3Tr8gH1n-228">
          <mxGeometry x="920" y="1030" width="140" height="50" as="geometry" />
        </mxCell>
        <mxCell id="h2VIEQUBgTQc3Tr8gH1n-280" style="edgeStyle=orthogonalEdgeStyle;curved=0;rounded=1;orthogonalLoop=1;jettySize=auto;html=1;exitX=0.5;exitY=1;exitDx=0;exitDy=0;entryX=0.5;entryY=0;entryDx=0;entryDy=0;strokeColor=default;align=center;verticalAlign=middle;fontFamily=Helvetica;fontSize=11;fontColor=default;labelBackgroundColor=default;endArrow=none;endFill=0;" edge="1" parent="h2VIEQUBgTQc3Tr8gH1n-228" source="h2VIEQUBgTQc3Tr8gH1n-273" target="h2VIEQUBgTQc3Tr8gH1n-279">
          <mxGeometry relative="1" as="geometry" />
        </mxCell>
        <mxCell id="h2VIEQUBgTQc3Tr8gH1n-273" value="加载jedis的jar包" style="rounded=1;whiteSpace=wrap;html=1;fillColor=#f8cecc;strokeColor=#b85450;fontStyle=1" vertex="1" parent="h2VIEQUBgTQc3Tr8gH1n-228">
          <mxGeometry x="1336" y="1030" width="140" height="50" as="geometry" />
        </mxCell>
        <mxCell id="h2VIEQUBgTQc3Tr8gH1n-282" style="edgeStyle=orthogonalEdgeStyle;curved=0;rounded=1;orthogonalLoop=1;jettySize=auto;html=1;exitX=0.5;exitY=1;exitDx=0;exitDy=0;entryX=0.5;entryY=0;entryDx=0;entryDy=0;strokeColor=default;align=center;verticalAlign=middle;fontFamily=Helvetica;fontSize=11;fontColor=default;labelBackgroundColor=default;endArrow=none;endFill=0;" edge="1" parent="h2VIEQUBgTQc3Tr8gH1n-228" source="h2VIEQUBgTQc3Tr8gH1n-274" target="h2VIEQUBgTQc3Tr8gH1n-281">
          <mxGeometry relative="1" as="geometry" />
        </mxCell>
        <mxCell id="h2VIEQUBgTQc3Tr8gH1n-274" value="更改context.xml配置" style="rounded=1;whiteSpace=wrap;html=1;fillColor=#f8cecc;strokeColor=#b85450;fontStyle=1" vertex="1" parent="h2VIEQUBgTQc3Tr8gH1n-228">
          <mxGeometry x="1916" y="1030" width="140" height="50" as="geometry" />
        </mxCell>
        <mxCell id="h2VIEQUBgTQc3Tr8gH1n-277" style="edgeStyle=orthogonalEdgeStyle;curved=0;rounded=1;orthogonalLoop=1;jettySize=auto;html=1;exitX=0.5;exitY=1;exitDx=0;exitDy=0;entryX=0.5;entryY=0;entryDx=0;entryDy=0;strokeColor=default;align=center;verticalAlign=middle;fontFamily=Helvetica;fontSize=11;fontColor=default;labelBackgroundColor=default;endArrow=none;endFill=0;" edge="1" parent="h2VIEQUBgTQc3Tr8gH1n-228" source="h2VIEQUBgTQc3Tr8gH1n-275" target="h2VIEQUBgTQc3Tr8gH1n-276">
          <mxGeometry relative="1" as="geometry" />
        </mxCell>
        <mxCell id="h2VIEQUBgTQc3Tr8gH1n-275" value="apt install -y redis-server" style="rounded=1;whiteSpace=wrap;html=1;fillColor=#f8cecc;strokeColor=#b85450;fontStyle=0" vertex="1" parent="h2VIEQUBgTQc3Tr8gH1n-228">
          <mxGeometry x="890" y="1120" width="200" height="50" as="geometry" />
        </mxCell>
        <mxCell id="h2VIEQUBgTQc3Tr8gH1n-276" value="注释掉bind 127.0.0.1:6379" style="rounded=1;whiteSpace=wrap;html=1;fillColor=#f8cecc;strokeColor=#b85450;fontStyle=0" vertex="1" parent="h2VIEQUBgTQc3Tr8gH1n-228">
          <mxGeometry x="890" y="1220" width="200" height="50" as="geometry" />
        </mxCell>
        <mxCell id="h2VIEQUBgTQc3Tr8gH1n-279" value="wget https://repo1.maven.org/maven2/redis/clients/jedis/3.0.0/jedis-3.0.0.jar" style="rounded=1;whiteSpace=wrap;html=1;fillColor=#f8cecc;strokeColor=#b85450;fontStyle=0" vertex="1" parent="h2VIEQUBgTQc3Tr8gH1n-228">
          <mxGeometry x="1171" y="1120" width="470" height="50" as="geometry" />
        </mxCell>
        <mxCell id="h2VIEQUBgTQc3Tr8gH1n-281" value="&lt;div&gt;&lt;div&gt;&lt;span&gt;&amp;lt;Manager className=&quot;de.javakaffee.web.msm.MemcachedBackupSessionManager&quot;&lt;/span&gt;&lt;/div&gt;&lt;div&gt;&lt;span&gt;&amp;nbsp;memcachedNodes=&quot;redis://10.0.0.181&quot;&lt;/span&gt;&lt;/div&gt;&lt;div&gt;&lt;span&gt;&amp;nbsp;sticky=&quot;false&quot;&lt;/span&gt;&lt;/div&gt;&lt;div&gt;&lt;span&gt;&amp;nbsp;sessionBackupAsync=&quot;false&quot;&lt;/span&gt;&lt;/div&gt;&lt;div&gt;&lt;span&gt;&amp;nbsp;lockingMode=&quot;uriPattern:/path1|/path2&quot;&lt;/span&gt;&lt;/div&gt;&lt;div&gt;&lt;span&gt;&amp;nbsp;requestUriIgnorePattern=&quot;.*\.(ico|png|gif|jpg|css|js)$&quot;&lt;/span&gt;&lt;/div&gt;&lt;div&gt;&lt;span&gt;&amp;nbsp;transcoderFactoryClass=&quot;de.javakaffee.web.msm.serializer.kryo.KryoTranscoderFactory&quot; /&amp;gt;&lt;/span&gt;&lt;/div&gt;&lt;/div&gt;" style="rounded=1;whiteSpace=wrap;html=1;fillColor=#f8cecc;strokeColor=#b85450;fontStyle=0;align=left;spacingLeft=20;spacingRight=20;" vertex="1" parent="h2VIEQUBgTQc3Tr8gH1n-228">
          <mxGeometry x="1726" y="1120" width="520" height="220" as="geometry" />
        </mxCell>
      </root>
    </mxGraphModel>
  </diagram>
</mxfile>
